<svg width="512" height="512" viewBox="0 0 512 512" fill="none" xmlns="http://www.w3.org/2000/svg">
<rect width="512" height="512" fill="white"/>
<g filter="url(#filter0_i_40002076_17142)">
<path d="M216.171 218.504C214.474 204.582 229.797 195.007 241.566 202.635L403.653 307.689C416.027 315.71 412.499 334.693 398.069 337.731L324.682 353.184C320.859 353.989 317.444 356.122 315.044 359.206L268.989 418.389C259.932 430.027 241.323 424.877 239.539 410.238L216.171 218.504Z" fill="#4D4ECD"/>
</g>
<g filter="url(#filter1_i_40002076_17142)">
<path fill-rule="evenodd" clip-rule="evenodd" d="M205.071 165.117C206.526 171.874 198.673 176.702 193.3 172.354L135.961 125.95C132.032 122.771 132.427 116.661 136.733 114.014L178.548 88.3063C182.854 85.6591 188.483 88.0643 189.547 93.0057L205.071 165.117ZM179.124 202.863C185.685 205.037 185.862 214.254 179.389 216.678L110.311 242.55C105.578 244.323 100.513 240.883 100.416 235.829L99.4755 186.753C99.3786 181.699 104.307 178.068 109.105 179.658L179.124 202.863ZM242.022 168.871C241.03 175.712 249.192 179.995 254.258 175.292L308.312 125.1C312.016 121.661 311.207 115.592 306.731 113.244L263.266 90.4359C258.79 88.0873 253.337 90.8694 252.611 95.8716L242.022 168.871Z" fill="#F77B1B"/>
</g>
<defs>
<filter id="filter0_i_40002076_17142" x="216.042" y="199.937" width="214.176" height="239.476" filterUnits="userSpaceOnUse" color-interpolation-filters="sRGB">
<feFlood flood-opacity="0" result="BackgroundImageFix"/>
<feBlend mode="normal" in="SourceGraphic" in2="BackgroundImageFix" result="shape"/>
<feColorMatrix in="SourceAlpha" type="matrix" values="0 0 0 0 0 0 0 0 0 0 0 0 0 0 0 0 0 0 127 0" result="hardAlpha"/>
<feOffset dx="19.0171" dy="14.6286"/>
<feGaussianBlur stdDeviation="16.1646"/>
<feComposite in2="hardAlpha" operator="arithmetic" k2="-1" k3="1"/>
<feColorMatrix type="matrix" values="0 0 0 0 1 0 0 0 0 1 0 0 0 0 1 0 0 0 0.4 0"/>
<feBlend mode="normal" in2="shape" result="effect1_innerShadow_40002076_17142"/>
</filter>
<filter id="filter1_i_40002076_17142" x="99.4741" y="87.2157" width="228.734" height="167.509" filterUnits="userSpaceOnUse" color-interpolation-filters="sRGB">
<feFlood flood-opacity="0" result="BackgroundImageFix"/>
<feBlend mode="normal" in="SourceGraphic" in2="BackgroundImageFix" result="shape"/>
<feColorMatrix in="SourceAlpha" type="matrix" values="0 0 0 0 0 0 0 0 0 0 0 0 0 0 0 0 0 0 127 0" result="hardAlpha"/>
<feOffset dx="17.5543" dy="11.7029"/>
<feGaussianBlur stdDeviation="14.6286"/>
<feComposite in2="hardAlpha" operator="arithmetic" k2="-1" k3="1"/>
<feColorMatrix type="matrix" values="0 0 0 0 1 0 0 0 0 1 0 0 0 0 1 0 0 0 0.46 0"/>
<feBlend mode="normal" in2="shape" result="effect1_innerShadow_40002076_17142"/>
</filter>
</defs>
</svg>
