<svg width="106" height="24" viewBox="0 0 106 24" fill="none" xmlns="http://www.w3.org/2000/svg">
<path d="M96.3602 24.0008C94.7806 24.0008 93.4173 23.6126 92.2705 22.8363C91.1237 22.0601 90.2365 21.025 89.609 19.7312C89.0031 18.4158 88.7002 16.9711 88.7002 15.397C88.7002 13.7582 89.0464 12.2919 89.7388 10.9981C90.4529 9.68269 91.4591 8.64765 92.7574 7.89294C94.0773 7.11666 95.6461 6.72852 97.4637 6.72852C99.2597 6.72852 100.785 7.11666 102.04 7.89294C103.317 8.64765 104.291 9.68269 104.961 10.9981C105.654 12.2919 106 13.7366 106 15.3323V23.6126H102.267V20.5398H102.202C101.878 21.1436 101.456 21.715 100.937 22.2541C100.417 22.7716 99.779 23.1921 99.0217 23.5156C98.2643 23.839 97.3772 24.0008 96.3602 24.0008ZM97.3663 20.8309C98.3401 20.8309 99.184 20.5937 99.898 20.1194C100.634 19.6234 101.196 18.9657 101.586 18.1463C101.997 17.3053 102.202 16.3673 102.202 15.3323C102.202 14.2972 102.008 13.3808 101.618 12.583C101.229 11.7636 100.677 11.1167 99.9629 10.6423C99.2489 10.1463 98.3942 9.89833 97.3988 9.89833C96.3602 9.89833 95.473 10.1463 94.7373 10.6423C94.0016 11.1167 93.439 11.7636 93.0495 12.583C92.66 13.4024 92.4653 14.3296 92.4653 15.3646C92.4653 16.3781 92.66 17.3053 93.0495 18.1463C93.439 18.9657 93.9908 19.6234 94.7048 20.1194C95.4405 20.5937 96.3277 20.8309 97.3663 20.8309Z" fill="white"/>
<path d="M77.6718 24C76.3518 24 75.1509 23.7951 74.069 23.3854C73.0087 22.9542 72.0999 22.3396 71.3426 21.5418C70.6069 20.7439 70.0334 19.8059 69.6223 18.7278C69.2328 17.628 69.0381 16.4205 69.0381 15.1051C69.0381 13.4232 69.3735 11.9569 70.0443 10.7062C70.7367 9.45553 71.6888 8.48518 72.9005 7.79515C74.1123 7.08356 75.4971 6.72776 77.0551 6.72776C77.8341 6.72776 78.5698 6.84636 79.2622 7.08356C79.9546 7.32076 80.5821 7.65499 81.1447 8.08625C81.7073 8.51752 82.1617 9.02426 82.5079 9.60647H82.5404V0H86.273V15.1698C86.273 16.9811 85.9051 18.5553 85.1694 19.8922C84.4554 21.2075 83.4492 22.221 82.1509 22.9326C80.8742 23.6442 79.3812 24 77.6718 24ZM77.6718 20.8302C78.6239 20.8302 79.4569 20.6038 80.171 20.1509C80.9067 19.6765 81.4801 19.0296 81.8912 18.2102C82.3024 17.3908 82.5079 16.442 82.5079 15.3639C82.5079 14.2857 82.3024 13.3369 81.8912 12.5175C81.4801 11.6981 80.9067 11.062 80.171 10.6092C79.4569 10.1348 78.613 9.89757 77.6393 9.89757C76.7089 9.89757 75.8758 10.1348 75.1401 10.6092C74.4044 11.0836 73.831 11.7305 73.4198 12.5499C73.0087 13.3693 72.8032 14.3073 72.8032 15.3639C72.8032 16.442 73.0087 17.3908 73.4198 18.2102C73.831 19.0296 74.4044 19.6765 75.1401 20.1509C75.8974 20.6038 76.7413 20.8302 77.6718 20.8302Z" fill="white"/>
<path d="M58.5563 23.9993C56.9551 23.9993 55.5594 23.6867 54.3693 23.0613C53.1792 22.4144 52.2596 21.5303 51.6104 20.409C50.9613 19.2877 50.6367 18.0263 50.6367 16.6247V7.11523H54.3693V16.5923C54.3693 17.4333 54.5533 18.1772 54.9211 18.8241C55.3106 19.4495 55.8191 19.9454 56.4466 20.312C57.0958 20.657 57.799 20.8295 58.5563 20.8295C59.3137 20.8295 60.0061 20.657 60.6336 20.312C61.2828 19.9454 61.7913 19.4495 62.1591 18.8241C62.5486 18.1772 62.7434 17.4333 62.7434 16.5923V7.11523H66.476V16.6247C66.476 18.0263 66.1514 19.2877 65.5022 20.409C64.8531 21.5303 63.9335 22.4144 62.7434 23.0613C61.5532 23.6867 60.1576 23.9993 58.5563 23.9993Z" fill="white"/>
<path d="M40.3232 23.6112V11.8053C40.3232 10.339 40.7344 9.1961 41.5566 8.37669C42.4005 7.53572 43.5582 7.11523 45.0296 7.11523H49.0218V10.285H45.7112C45.1919 10.285 44.7807 10.436 44.4778 10.7379C44.1965 11.0398 44.0558 11.4495 44.0558 11.967V23.6112H40.3232Z" fill="white"/>
<path d="M27.3211 24.0008C25.7415 24.0008 24.3783 23.6126 23.2315 22.8363C22.0846 22.0601 21.1975 21.025 20.5699 19.7312C19.9641 18.4158 19.6611 16.9711 19.6611 15.397C19.6611 13.7582 20.0073 12.2919 20.6998 10.9981C21.4138 9.68269 22.42 8.64765 23.7183 7.89294C25.0383 7.11666 26.607 6.72852 28.4246 6.72852C30.2206 6.72852 31.7461 7.11666 33.0012 7.89294C34.2778 8.64765 35.2515 9.68269 35.9223 10.9981C36.6147 12.2919 36.961 13.7366 36.961 15.3323V23.6126H33.2284V20.5398H33.1634C32.8389 21.1436 32.4169 21.715 31.8976 22.2541C31.3783 22.7716 30.74 23.1921 29.9826 23.5156C29.2253 23.839 28.3381 24.0008 27.3211 24.0008ZM28.3273 20.8309C29.301 20.8309 30.1449 20.5937 30.859 20.1194C31.5947 19.6234 32.1573 18.9657 32.5468 18.1463C32.9579 17.3053 33.1634 16.3673 33.1634 15.3323C33.1634 14.2972 32.9687 13.3808 32.5792 12.583C32.1897 11.7636 31.6379 11.1167 30.9239 10.6423C30.2098 10.1463 29.3551 9.89833 28.3597 9.89833C27.3211 9.89833 26.4339 10.1463 25.6982 10.6423C24.9625 11.1167 24.3999 11.7636 24.0104 12.583C23.6209 13.4024 23.4262 14.3296 23.4262 15.3646C23.4262 16.3781 23.6209 17.3053 24.0104 18.1463C24.3999 18.9657 24.9517 19.6234 25.6658 20.1194C26.4015 20.5937 27.2886 20.8309 28.3273 20.8309Z" fill="white"/>
<path d="M8.63369 24C7.31375 24 6.11282 23.7951 5.03091 23.3854C3.97063 22.9542 3.06182 22.3396 2.30448 21.5418C1.56878 20.7439 0.995362 19.8059 0.584234 18.7278C0.194745 17.628 0 16.4205 0 15.1051C0 13.4232 0.335394 11.9569 1.00618 10.7062C1.69861 9.45553 2.65069 8.48518 3.86244 7.79515C5.07418 7.08356 6.45904 6.72776 8.01699 6.72776C8.79597 6.72776 9.53168 6.84636 10.2241 7.08356C10.9165 7.32076 11.544 7.65499 12.1066 8.08625C12.6692 8.51752 13.1236 9.02426 13.4698 9.60647H13.5023V0H17.2349V15.1698C17.2349 16.9811 16.8671 18.5553 16.1314 19.8922C15.4173 21.2075 14.4111 22.221 13.1128 22.9326C11.8362 23.6442 10.3431 24 8.63369 24ZM8.63369 20.8302C9.58577 20.8302 10.4188 20.6038 11.1329 20.1509C11.8686 19.6765 12.442 19.0296 12.8532 18.2102C13.2643 17.3908 13.4698 16.442 13.4698 15.3639C13.4698 14.2857 13.2643 13.3369 12.8532 12.5175C12.442 11.6981 11.8686 11.062 11.1329 10.6092C10.4188 10.1348 9.57495 9.89757 8.60123 9.89757C7.67078 9.89757 6.83771 10.1348 6.102 10.6092C5.3663 11.0836 4.79289 11.7305 4.38176 12.5499C3.97063 13.3693 3.76507 14.3073 3.76507 15.3639C3.76507 16.442 3.97063 17.3908 4.38176 18.2102C4.79289 19.0296 5.3663 19.6765 6.102 20.1509C6.85935 20.6038 7.70324 20.8302 8.63369 20.8302Z" fill="white"/>
</svg>
