<svg width="40" height="40" viewBox="0 0 40 40" fill="none" xmlns="http://www.w3.org/2000/svg">
<path fill-rule="evenodd" clip-rule="evenodd" d="M19.2467 12.3018C19.7594 11.8105 19.7766 10.9966 19.2853 10.484C18.794 9.97132 17.9801 9.95405 17.4674 10.4454L8.89602 18.6605C8.64301 18.903 8.49995 19.2383 8.49995 19.5887C8.49995 19.9392 8.64301 20.2745 8.89602 20.517L17.4675 28.7321C17.9801 29.2234 18.794 29.2062 19.2853 28.6935C19.7767 28.1809 19.7594 27.367 19.2467 26.8756L12.989 20.8781H31.2143C31.9244 20.8781 32.5 20.3024 32.5 19.5924C32.5 18.8823 31.9244 18.3066 31.2143 18.3066H12.9815L19.2467 12.3018Z" fill="#565959"/>
</svg>
