<svg width="20" height="20" viewBox="0 0 20 20" fill="none" xmlns="http://www.w3.org/2000/svg">
<path fill-rule="evenodd" clip-rule="evenodd" d="M4 1.75H16C17.2426 1.75 18.25 2.75736 18.25 4V16C18.25 17.2426 17.2426 18.25 16 18.25H4C2.75736 18.25 1.75 17.2426 1.75 16V4C1.75 2.75736 2.75736 1.75 4 1.75ZM1 4C1 2.34315 2.34315 1 4 1H16C17.6569 1 19 2.34315 19 4V16C19 17.6569 17.6569 19 16 19H4C2.34315 19 1 17.6569 1 16V4ZM14.5 9.82968V8.56894H13.6L14.125 6.24993H12.7333L12.3083 8.56894H11.2583L10.7917 6.24993H9.28333L8.825 8.56894H7.76667L7.34167 6.24993H5.875L6.4 8.56894H5.5V9.82968H6.68333L7.575 13.7499H8.95L10 8.55974L11.05 13.7499H12.425L13.3167 9.82968H14.5ZM8.275 11.3113L8 9.82968H8.56667L8.275 11.3113ZM12.0833 9.82968L11.8083 11.3389L11.5083 9.82968H12.0833Z" fill="#F77B1B"/>
</svg>
