<svg width="20" height="20" viewBox="0 0 20 20" fill="none" xmlns="http://www.w3.org/2000/svg">
<mask id="path-1-inside-1_40001900_19809" fill="white">
<path fill-rule="evenodd" clip-rule="evenodd" d="M10 19H4C2.34315 19 1 17.6569 1 16V4C1 2.34315 2.34315 1 4 1H10H16C17.6569 1 19 2.34315 19 4V16C19 17.6569 17.6569 19 16 19H10ZM10 1.75H16C17.2426 1.75 18.25 2.75736 18.25 4V16C18.25 17.2426 17.2426 18.25 16 18.25H10V8.55996L11.05 13.7501H12.425L13.3167 9.8299H14.5V8.56916H13.6L14.125 6.25015H12.6583L12.2333 8.56916H11.175L10.7167 6.25015H10V1.75ZM10 6.25015V8.55996L8.95 13.7501H7.575L6.68333 9.8299H5.5V8.56916H6.4L5.875 6.25015H7.34167L7.76667 8.56916H8.825L9.28333 6.25015H10ZM11.725 11.3115L12 9.8299H11.4333L11.725 11.3115ZM8.275 11.3115L8 9.8299H8.56667L8.275 11.3115Z"/>
</mask>
<path fill-rule="evenodd" clip-rule="evenodd" d="M10 19H4C2.34315 19 1 17.6569 1 16V4C1 2.34315 2.34315 1 4 1H10H16C17.6569 1 19 2.34315 19 4V16C19 17.6569 17.6569 19 16 19H10ZM10 1.75H16C17.2426 1.75 18.25 2.75736 18.25 4V16C18.25 17.2426 17.2426 18.25 16 18.25H10V8.55996L11.05 13.7501H12.425L13.3167 9.8299H14.5V8.56916H13.6L14.125 6.25015H12.6583L12.2333 8.56916H11.175L10.7167 6.25015H10V1.75ZM10 6.25015V8.55996L8.95 13.7501H7.575L6.68333 9.8299H5.5V8.56916H6.4L5.875 6.25015H7.34167L7.76667 8.56916H8.825L9.28333 6.25015H10ZM11.725 11.3115L12 9.8299H11.4333L11.725 11.3115ZM8.275 11.3115L8 9.8299H8.56667L8.275 11.3115Z" fill="#F77B1B"/>
<path d="M10 1.75V1H9.25V1.75H10ZM10 18.25H9.25V19H10V18.25ZM11.05 13.7501L10.3149 13.8989L10.4365 14.5001H11.05V13.7501ZM12.425 13.7501V14.5001H13.0236L13.1563 13.9165L12.425 13.7501ZM13.3167 9.8299V9.0799H12.7181L12.5853 9.66356L13.3167 9.8299ZM14.5 9.8299V10.5799H15.25V9.8299H14.5ZM14.5 8.56916H15.25V7.81916H14.5V8.56916ZM13.6 8.56916L12.8685 8.40356L12.6612 9.31916H13.6V8.56916ZM14.125 6.25015L14.8565 6.41575L15.0638 5.50015H14.125V6.25015ZM12.6583 6.25015V5.50015H12.0333L11.9206 6.11495L12.6583 6.25015ZM12.2333 8.56916V9.31916H12.8584L12.971 8.70436L12.2333 8.56916ZM11.175 8.56916L10.4392 8.71458L10.5587 9.31916H11.175V8.56916ZM10.7167 6.25015L11.4524 6.10473L11.3329 5.50015H10.7167V6.25015ZM8.95 13.7501V14.5001H9.56347L9.68511 13.8989L8.95 13.7501ZM7.575 13.7501L6.84368 13.9165L6.97643 14.5001H7.575V13.7501ZM6.68333 9.8299L7.41465 9.66356L7.2819 9.0799H6.68333V9.8299ZM5.5 9.8299H4.75V10.5799H5.5V9.8299ZM5.5 8.56916V7.81916H4.75V8.56916H5.5ZM6.4 8.56916V9.31916H7.33877L7.13149 8.40356L6.4 8.56916ZM5.875 6.25015V5.50015H4.93623L5.14351 6.41575L5.875 6.25015ZM7.34167 6.25015L8.07938 6.11495L7.96671 5.50015H7.34167V6.25015ZM7.76667 8.56916L7.02895 8.70436L7.14163 9.31916H7.76667V8.56916ZM8.825 8.56916V9.31916H9.44128L9.56077 8.71458L8.825 8.56916ZM9.28333 6.25015V5.50015H8.66706L8.54757 6.10473L9.28333 6.25015ZM12 9.8299L12.7374 9.96677L12.902 9.0799H12V9.8299ZM11.725 11.3115L10.9891 11.4564L12.4624 11.4484L11.725 11.3115ZM11.4333 9.8299V9.0799H10.5213L10.6975 9.97477L11.4333 9.8299ZM8 9.8299V9.0799H7.09798L7.26259 9.96677L8 9.8299ZM8.275 11.3115L7.53759 11.4484L9.01088 11.4564L8.275 11.3115ZM8.56667 9.8299L9.30254 9.97477L9.47871 9.0799H8.56667V9.8299ZM10 18.25H4V19.75H10V18.25ZM4 18.25C2.75736 18.25 1.75 17.2426 1.75 16H0.25C0.25 18.0711 1.92893 19.75 4 19.75V18.25ZM1.75 16V4H0.25V16H1.75ZM1.75 4C1.75 2.75736 2.75736 1.75 4 1.75V0.25C1.92893 0.25 0.25 1.92893 0.25 4H1.75ZM4 1.75H10V0.25H4V1.75ZM10 1.75H16V0.25H10V1.75ZM16 1.75C17.2426 1.75 18.25 2.75736 18.25 4H19.75C19.75 1.92893 18.0711 0.25 16 0.25V1.75ZM18.25 4V16H19.75V4H18.25ZM18.25 16C18.25 17.2426 17.2426 18.25 16 18.25V19.75C18.0711 19.75 19.75 18.0711 19.75 16H18.25ZM16 18.25H10V19.75H16V18.25ZM10 2.5H16V1H10V2.5ZM16 2.5C16.8284 2.5 17.5 3.17157 17.5 4H19C19 2.34315 17.6569 1 16 1V2.5ZM17.5 4V16H19V4H17.5ZM17.5 16C17.5 16.8284 16.8284 17.5 16 17.5V19C17.6569 19 19 17.6569 19 16H17.5ZM16 17.5H10V19H16V17.5ZM9.25 8.55996V18.25H10.75V8.55996H9.25ZM11.7851 13.6014L10.7351 8.41125L9.26489 8.70868L10.3149 13.8989L11.7851 13.6014ZM12.425 13.0001H11.05V14.5001H12.425V13.0001ZM12.5853 9.66356L11.6937 13.5838L13.1563 13.9165L14.048 9.99624L12.5853 9.66356ZM14.5 9.0799H13.3167V10.5799H14.5V9.0799ZM13.75 8.56916V9.8299H15.25V8.56916H13.75ZM13.6 9.31916H14.5V7.81916H13.6V9.31916ZM13.3935 6.08455L12.8685 8.40356L14.3315 8.73477L14.8565 6.41575L13.3935 6.08455ZM12.6583 7.00015H14.125V5.50015H12.6583V7.00015ZM12.971 8.70436L13.396 6.38534L11.9206 6.11495L11.4956 8.43397L12.971 8.70436ZM11.175 9.31916H12.2333V7.81916H11.175V9.31916ZM9.9809 6.39556L10.4392 8.71458L11.9108 8.42375L11.4524 6.10473L9.9809 6.39556ZM10 7.00015H10.7167V5.50015H10V7.00015ZM9.25 1.75V6.25015H10.75V1.75H9.25ZM10.75 8.55996V6.25015H9.25V8.55996H10.75ZM9.68511 13.8989L10.7351 8.70868L9.26489 8.41125L8.21489 13.6014L9.68511 13.8989ZM7.575 14.5001H8.95V13.0001H7.575V14.5001ZM5.95201 9.99624L6.84368 13.9165L8.30632 13.5838L7.41465 9.66356L5.95201 9.99624ZM5.5 10.5799H6.68333V9.0799H5.5V10.5799ZM4.75 8.56916V9.8299H6.25V8.56916H4.75ZM6.4 7.81916H5.5V9.31916H6.4V7.81916ZM5.14351 6.41575L5.66851 8.73477L7.13149 8.40356L6.60649 6.08455L5.14351 6.41575ZM7.34167 5.50015H5.875V7.00015H7.34167V5.50015ZM8.50438 8.43397L8.07938 6.11495L6.60395 6.38534L7.02895 8.70436L8.50438 8.43397ZM8.825 7.81916H7.76667V9.31916H8.825V7.81916ZM8.54757 6.10473L8.08923 8.42375L9.56077 8.71458L10.0191 6.39556L8.54757 6.10473ZM10 5.50015H9.28333V7.00015H10V5.50015ZM11.2626 9.69303L10.9876 11.1746L12.4624 11.4484L12.7374 9.96677L11.2626 9.69303ZM11.4333 10.5799H12V9.0799H11.4333V10.5799ZM12.4609 11.1666L12.1692 9.68504L10.6975 9.97477L10.9891 11.4564L12.4609 11.1666ZM7.26259 9.96677L7.53759 11.4484L9.0124 11.1746L8.73741 9.69303L7.26259 9.96677ZM8.56667 9.0799H8V10.5799H8.56667V9.0799ZM9.01088 11.4564L9.30254 9.97477L7.83079 9.68504L7.53912 11.1666L9.01088 11.4564Z" fill="#F77B1B" mask="url(#path-1-inside-1_40001900_19809)"/>
</svg>
