<svg width="32" height="28" viewBox="0 0 32 28" fill="none" xmlns="http://www.w3.org/2000/svg">
<path d="M16 0C24.8366 0 32 5.64795 32 12.6152C31.9999 19.5824 24.8365 25.2305 16 25.2305C13.9838 25.2305 12.0551 24.9351 10.2783 24.3984L4.95996 27.0586C4.27322 27.402 3.51667 26.7379 3.76855 26.0127L5.19238 21.916C2.00144 19.6098 5.80618e-05 16.2972 0 12.6152C0 5.64795 7.16344 2.43846e-06 16 0Z" fill="#ACACAC"/>
<path d="M9.84668 11.0781C10.8661 11.0783 11.6923 11.9044 11.6924 12.9238C11.6924 13.9433 10.8661 14.7703 9.84668 14.7705C8.82708 14.7705 8 13.9434 8 12.9238C8.00004 11.9043 8.8271 11.0781 9.84668 11.0781ZM16 11.0781C17.0196 11.0781 17.8466 11.9043 17.8467 12.9238C17.8467 13.9434 17.0196 14.7705 16 14.7705C14.9804 14.7704 14.1543 13.9434 14.1543 12.9238C14.1543 11.9043 14.9805 11.0782 16 11.0781ZM22.1543 11.0781C23.1737 11.0784 24 11.9044 24 12.9238C24 13.9433 23.1737 14.7703 22.1543 14.7705C21.1347 14.7705 20.3076 13.9434 20.3076 12.9238C20.3077 11.9043 21.1347 11.0781 22.1543 11.0781Z" fill="#848688"/>
</svg>
