<svg width="28" height="28" viewBox="0 0 28 28" fill="none" xmlns="http://www.w3.org/2000/svg">
<g id="ic_arrow_left_black_32">
<path id="Union" fill-rule="evenodd" clip-rule="evenodd" d="M13.2467 6.30183C13.7594 5.8105 13.7766 4.99661 13.2853 4.48397C12.794 3.97132 11.9801 3.95405 11.4674 4.44538L2.89602 12.6605C2.64301 12.903 2.49995 13.2383 2.49995 13.5887C2.49995 13.9392 2.64301 14.2745 2.89602 14.517L11.4675 22.7321C11.9801 23.2234 12.794 23.2062 13.2853 22.6935C13.7767 22.1809 13.7594 21.367 13.2467 20.8756L6.98903 14.8781H25.2143C25.9244 14.8781 26.5 14.3024 26.5 13.5924C26.5 12.8823 25.9244 12.3066 25.2143 12.3066H6.98149L13.2467 6.30183Z" fill="#565959"/>
</g>
</svg>
