<svg width="44" height="45" viewBox="0 0 44 45" fill="none" xmlns="http://www.w3.org/2000/svg">
<path fill-rule="evenodd" clip-rule="evenodd" d="M5.2 19.34L7.2 17.34L8.24 16.3C10 14.54 13.04 14.54 14.96 16.3L18.1858 19.5258L19.6 20.94L21.0142 19.5258L21.04 19.5C22.8 17.74 25.84 17.74 27.76 19.5L28.3312 20.0712C23.4982 21.6214 20 26.1522 20 31.5C20 32.9025 20.2406 34.2489 20.6828 35.5H6.8C4.08 35.5 2 33.42 2 30.7V8.3C2 5.58 4.08 3.5 6.8 3.5H29.2C31.92 3.5 34 5.58 34 8.3V19.6659C33.3496 19.5568 32.6814 19.5 32 19.5C31.595 19.5 31.1947 19.5201 30.8 19.5592V8.3C30.8 7.34 30.16 6.7 29.2 6.7H6.8C5.84 6.7 5.2 7.34 5.2 8.3V16.5116V19.34ZM42 31.5C42 37.0228 37.5228 41.5 32 41.5C26.4772 41.5 22 37.0228 22 31.5C22 25.9772 26.4772 21.5 32 21.5C37.5228 21.5 42 25.9772 42 31.5ZM32.7852 26.2856C32.7852 25.8517 32.4334 25.5 31.9996 25.5C31.5657 25.5 31.214 25.8517 31.214 26.2856V30.7156H26.7856C26.3517 30.7156 26 31.0673 26 31.5012C26 31.935 26.3517 32.2867 26.7856 32.2867H31.214V36.7144C31.214 37.1483 31.5657 37.5 31.9996 37.5C32.4334 37.5 32.7852 37.1483 32.7852 36.7144V32.2867L37.2144 32.2867C37.6483 32.2867 38 31.935 38 31.5012C38 31.0673 37.6483 30.7156 37.2144 30.7156H32.7852V26.2856Z" fill="#ACACAC"/>
</svg>
