<svg width="32" height="32" viewBox="0 0 32 32" fill="none" xmlns="http://www.w3.org/2000/svg">
<path d="M16.027 12.6185C16.8789 12.0101 18.0765 12.4395 18.3478 13.4505L21.3472 24.6445C21.6183 25.6561 20.7951 26.6281 19.7527 26.5266L10.3863 25.6141C10.2727 25.603 10.1581 25.6125 10.0478 25.642C9.54027 25.778 9.23906 26.2997 9.37506 26.8073L10.0231 29.2256C10.2373 30.0257 9.7625 30.8483 8.96239 31.0627L8.81901 31.1012C8.0189 31.3155 7.19642 30.8405 6.98189 30.0405L6.29087 27.4615C6.17864 27.0427 5.74811 26.7941 5.32925 26.9064C4.52906 27.1208 3.70655 26.6459 3.49213 25.8457L2.28499 21.3406C2.07079 20.5405 2.54556 19.7178 3.34565 19.5034L7.95789 18.2676C8.13158 18.2211 8.29549 18.1437 8.44179 18.0391L16.027 12.6185Z" fill="#4D4ECD"/>
<path d="M15.5934 9.8559C15.7467 10.4311 15.0913 10.879 14.6111 10.5274L8.53974 6.08171C8.18856 5.82455 8.19712 5.29743 8.55646 5.05181L12.6905 2.22617C13.0498 1.98055 13.5441 2.16401 13.6562 2.5846L15.5934 9.8559Z" fill="#B9B9F6"/>
<path d="M19.8252 9.89592C19.4073 10.3198 18.6888 9.98224 18.7482 9.38998L19.4993 1.9026C19.5428 1.46951 20.0014 1.20947 20.3953 1.39454L24.9276 3.52364C25.3216 3.70871 25.4142 4.2277 25.1086 4.53764L19.8252 9.89592Z" fill="#B9B9F6"/>
<path d="M21.5601 14.2164C20.9822 14.0737 20.9052 13.2836 21.4447 13.032L28.2646 9.85177C28.659 9.66781 29.1169 9.92914 29.1591 10.3624L29.6449 15.3462C29.6871 15.7794 29.2883 16.1242 28.8657 16.0199L21.5601 14.2164Z" fill="#B9B9F6"/>
</svg>
