<svg width="32" height="32" viewBox="0 0 32 32" fill="none" xmlns="http://www.w3.org/2000/svg">
<path d="M16.027 12.6185C16.8789 12.0101 18.0765 12.4395 18.3478 13.4505L21.3472 24.6445C21.6183 25.6561 20.7951 26.6281 19.7527 26.5266L10.3863 25.6141C10.2727 25.603 10.1581 25.6125 10.0478 25.642C9.54026 25.778 9.23906 26.2997 9.37506 26.8073L10.0231 29.2256C10.2373 30.0257 9.7625 30.8483 8.96239 31.0627L8.81901 31.1011C8.0189 31.3155 7.19641 30.8405 6.98189 30.0405L6.29087 27.4615C6.17864 27.0427 5.7481 26.7941 5.32925 26.9064C4.52905 27.1208 3.70655 26.6459 3.49213 25.8457L2.28499 21.3406C2.07078 20.5405 2.54556 19.7178 3.34565 19.5034L7.95789 18.2676C8.13158 18.221 8.29549 18.1437 8.44179 18.0391L16.027 12.6185Z" fill="#848688"/>
<path d="M15.5939 9.8559C15.7472 10.4311 15.0918 10.879 14.6116 10.5274L8.54023 6.08171C8.18905 5.82455 8.1976 5.29743 8.55695 5.05181L12.691 2.22617C13.0503 1.98055 13.5446 2.16401 13.6566 2.5846L15.5939 9.8559Z" fill="#ACACAC"/>
<path d="M19.8257 9.89592C19.4078 10.3198 18.6893 9.98224 18.7487 9.38998L19.4998 1.9026C19.5432 1.46951 20.0018 1.20947 20.3958 1.39454L24.9281 3.52364C25.322 3.70871 25.4147 4.2277 25.1091 4.53764L19.8257 9.89592Z" fill="#ACACAC"/>
<path d="M21.5606 14.2164C20.9827 14.0737 20.9057 13.2836 21.4452 13.032L28.265 9.85177C28.6595 9.66781 29.1174 9.92914 29.1596 10.3624L29.6454 15.3462C29.6876 15.7794 29.2888 16.1242 28.8662 16.0199L21.5606 14.2164Z" fill="#ACACAC"/>
</svg>
