<svg width="24" height="24" viewBox="0 0 24 24" fill="none" xmlns="http://www.w3.org/2000/svg">
<path fill-rule="evenodd" clip-rule="evenodd" d="M16.7812 15.3687C16.7695 15.9208 17.2076 16.378 17.7598 16.3897C18.3119 16.4014 18.769 15.9633 18.7808 15.4111L18.9796 6.04226C18.9854 5.76974 18.8797 5.50667 18.6869 5.31393C18.4942 5.12119 18.2311 5.01548 17.9586 5.02126L8.58975 5.22012C8.03759 5.23184 7.59948 5.68895 7.61119 6.24111C7.62292 6.79327 8.08003 7.23139 8.63219 7.21967L15.5089 7.07371L5.31103 17.2716C4.92051 17.6621 4.92051 18.2953 5.31103 18.6858C5.70156 19.0763 6.33472 19.0763 6.72525 18.6858L16.9273 8.48371L16.7812 15.3687Z" fill="white"/>
</svg>
