<svg width="17" height="16" viewBox="0 0 17 16" fill="none" xmlns="http://www.w3.org/2000/svg">
<path id="Vector" d="M4.8125 11.9539H2.65625C2.10417 11.9539 1.57273 11.7391 1.17933 11.3536C0.785595 10.9677 0.5625 10.4422 0.5625 9.89202V2.60316C0.5625 2.05302 0.785595 1.5275 1.17933 1.14163C1.57273 0.756099 2.10417 0.541266 2.65625 0.541266H14.3438C14.8958 0.541266 15.4273 0.756099 15.8207 1.14163C16.2144 1.5275 16.4375 2.05302 16.4375 2.60316V9.89202C16.4375 10.4422 16.2144 10.9677 15.8207 11.3536C15.4273 11.7391 14.8958 11.9539 14.3438 11.9539H10.6592L5.88204 15.3314L4.8125 11.9539ZM4.8125 11.9539V14.7832C4.8125 15.3464 5.44666 15.6394 5.88165 15.3317L4.8125 11.9539ZM5.30435 14.5151C5.30437 14.5151 5.30439 14.5151 5.30441 14.5151L5.30435 14.5151ZM10.8439 11.9952H10.685L10.5552 12.0869L5.92636 15.3599C5.42201 15.7163 4.75 15.3497 4.75 14.7825V12.4952V11.9952H4.25H2.65625C2.08116 11.9952 1.5316 11.7712 1.12796 11.3756C0.724672 10.9804 0.5 10.4465 0.5 9.89202V2.60316C0.5 2.04866 0.724672 1.51479 1.12796 1.11955C1.5316 0.723984 2.08116 0.5 2.65625 0.5H14.3438C14.9188 0.5 15.4684 0.723984 15.872 1.11955C16.2753 1.51479 16.5 2.04866 16.5 2.60316V9.89202C16.5 10.4465 16.2753 10.9804 15.872 11.3756C15.4684 11.7712 14.9188 11.9952 14.3438 11.9952H10.8439Z" stroke="#565959"/>
</svg>
