<svg width="20" height="20" viewBox="0 0 20 20" fill="none" xmlns="http://www.w3.org/2000/svg">
<g id="ic_chevron">
<path id="Union" fill-rule="evenodd" clip-rule="evenodd" d="M18.1073 14.6835C18.4742 15.03 19.1431 15.1033 19.6014 14.8472C20.0596 14.5911 20.1337 14.1027 19.7668 13.7562L10.9898 5.4676C10.9242 5.3464 10.815 5.23703 10.6643 5.15279C10.4681 5.04315 10.2332 4.99389 10 5.0006C9.76678 4.99389 9.53194 5.04315 9.33571 5.15279C9.18497 5.23703 9.0758 5.3464 9.01022 5.4676L0.233194 13.7562C-0.13368 14.1027 -0.0596046 14.5911 0.398647 14.8472C0.856899 15.1033 1.5258 15.03 1.89267 14.6835L10 7.02734L18.1073 14.6835Z" fill="white"/>
</g>
</svg>
