<svg width="24" height="24" viewBox="0 0 24 24" fill="none" xmlns="http://www.w3.org/2000/svg">
<path d="M6.65625 5.04127C6.23356 5.04127 5.82818 5.20582 5.5293 5.49874C5.23041 5.79165 5.0625 6.18892 5.0625 6.60316V13.892C5.0625 14.3063 5.23041 14.7035 5.5293 14.9965C5.82818 15.2894 6.23356 15.4539 6.65625 15.4539H9.3125V18.7832C9.3125 18.9241 9.47542 19.0067 9.593 18.9234L14.5003 15.4539H18.3438C18.7664 15.4539 19.1718 15.2894 19.4707 14.9965C19.7696 14.7035 19.9375 14.3063 19.9375 13.892V6.60316C19.9375 6.18892 19.7696 5.79165 19.4707 5.49874C19.1718 5.20582 18.7664 5.04127 18.3438 5.04127H6.65625ZM4 6.60316C4 5.91276 4.27985 5.25064 4.778 4.76245C5.27614 4.27426 5.95177 4 6.65625 4H18.3438C19.0482 4 19.7239 4.27426 20.222 4.76245C20.7201 5.25064 21 5.91276 21 6.60316V13.892C21 14.5824 20.7201 15.2446 20.222 15.7327C19.7239 16.2209 19.0482 16.4952 18.3438 16.4952H14.8439L10.2149 19.7682C9.39467 20.3479 8.25 19.7738 8.25 18.7825V16.4952H6.65625C5.95177 16.4952 5.27614 16.2209 4.778 15.7327C4.27985 15.2446 4 14.5824 4 13.892V6.60316Z" fill="#565959" stroke="#565959" stroke-width="0.5"/>
</svg>
