<svg width="25" height="24" viewBox="0 0 25 24" fill="none" xmlns="http://www.w3.org/2000/svg">
<g id="ic_comment">
<path id="Vector" d="M6.90625 5.04127C6.48356 5.04127 6.07818 5.20582 5.7793 5.49874C5.48041 5.79165 5.3125 6.18892 5.3125 6.60316V13.892C5.3125 14.3063 5.48041 14.7035 5.7793 14.9965C6.07818 15.2894 6.48356 15.4539 6.90625 15.4539H9.5625V18.7832C9.5625 18.9241 9.72542 19.0067 9.843 18.9234L14.7503 15.4539H18.5938C19.0164 15.4539 19.4218 15.2894 19.7207 14.9965C20.0196 14.7035 20.1875 14.3063 20.1875 13.892V6.60316C20.1875 6.18892 20.0196 5.79165 19.7207 5.49874C19.4218 5.20582 19.0164 5.04127 18.5938 5.04127H6.90625ZM4.25 6.60316C4.25 5.91276 4.52985 5.25064 5.028 4.76245C5.52614 4.27426 6.20177 4 6.90625 4H18.5938C19.2982 4 19.9739 4.27426 20.472 4.76245C20.9701 5.25064 21.25 5.91276 21.25 6.60316V13.892C21.25 14.5824 20.9701 15.2446 20.472 15.7327C19.9739 16.2209 19.2982 16.4952 18.5938 16.4952H15.0939L10.4649 19.7682C9.64467 20.3479 8.5 19.7738 8.5 18.7825V16.4952H6.90625C6.20177 16.4952 5.52614 16.2209 5.028 15.7327C4.52985 15.2446 4.25 14.5824 4.25 13.892V6.60316Z" fill="#565959" stroke="#565959" stroke-width="0.5"/>
</g>
</svg>
