<svg width="16" height="16" viewBox="0 0 16 16" fill="none" xmlns="http://www.w3.org/2000/svg">
<path fill-rule="evenodd" clip-rule="evenodd" d="M1.51414 4.25317C1.22064 3.97601 0.68552 3.91738 0.318918 4.12224C-0.0476847 4.32709 -0.106945 4.71785 0.186555 4.99501L7.20818 11.6259C7.26064 11.7229 7.34798 11.8104 7.46857 11.8778C7.62555 11.9655 7.81343 12.0049 8 11.9995C8.18657 12.0049 8.37445 11.9655 8.53143 11.8778C8.65202 11.8104 8.73936 11.7229 8.79182 11.6259L15.8134 4.99501C16.1069 4.71785 16.0477 4.32709 15.6811 4.12224C15.3145 3.91738 14.7794 3.97601 14.4859 4.25317L8 10.3781L1.51414 4.25317Z" fill="#212121"/>
</svg>
