<svg width="20" height="20" viewBox="0 0 20 20" fill="none" xmlns="http://www.w3.org/2000/svg">
<g id="ic_insta_gray_20">
<path id="Vector" fill-rule="evenodd" clip-rule="evenodd" d="M10 2.85718C8.06003 2.85718 7.81718 2.86575 7.05503 2.90003C6.29503 2.93503 5.77575 3.05575 5.32146 3.23218C4.84466 3.41133 4.4127 3.6924 4.05575 4.05575C3.6924 4.4127 3.41133 4.84466 3.23218 5.32146C3.05575 5.77575 2.93503 6.29503 2.90003 7.05503C2.86503 7.81718 2.85718 8.06003 2.85718 10C2.85718 11.94 2.86503 12.1829 2.90003 12.945C2.93503 13.705 3.05575 14.2243 3.23218 14.6786C3.41133 15.1554 3.6924 15.5874 4.05575 15.9443C4.4127 16.3077 4.84466 16.5887 5.32146 16.7679C5.77575 16.9443 6.29503 17.065 7.05503 17.1C7.81718 17.1343 8.06003 17.1429 10 17.1429C11.94 17.1429 12.1829 17.1343 12.945 17.1C13.705 17.065 14.2243 16.9443 14.6786 16.7679C15.1554 16.5887 15.5874 16.3077 15.9443 15.9443C16.3077 15.5874 16.5887 15.1554 16.7679 14.6786C16.9443 14.2243 17.065 13.705 17.1 12.945C17.1343 12.1829 17.1429 11.94 17.1429 10C17.1429 8.06003 17.1343 7.81718 17.1 7.05503C17.065 6.29503 16.9443 5.77575 16.7679 5.32146C16.5887 4.84466 16.3077 4.4127 15.9443 4.05575C15.5874 3.6924 15.1554 3.41133 14.6786 3.23218C14.2243 3.05575 13.705 2.93503 12.945 2.90003C12.1829 2.86575 11.94 2.85718 10 2.85718ZM10 4.14432C11.9072 4.14432 12.1329 4.15146 12.8857 4.18575C13.5829 4.21789 13.9607 4.33361 14.2129 4.43146C14.5457 4.56146 14.7843 4.71646 15.0343 4.96575C15.2843 5.21575 15.4386 5.45432 15.5686 5.78718C15.6657 6.03932 15.7829 6.41718 15.8143 7.11361C15.8486 7.86718 15.8557 8.09218 15.8557 10C15.8557 11.9072 15.8486 12.1329 15.8143 12.8857C15.7822 13.5829 15.6657 13.9607 15.5686 14.2129C15.4541 14.5232 15.2715 14.8038 15.0343 15.0343C14.7843 15.2843 14.5457 15.4386 14.2129 15.5686C13.9607 15.6657 13.5829 15.7829 12.8865 15.8143C12.1336 15.8486 11.9079 15.8557 10 15.8557C8.09289 15.8557 7.86646 15.8486 7.11432 15.8143C6.41718 15.7822 6.03932 15.6657 5.78718 15.5686C5.4769 15.4541 5.19622 15.2715 4.96575 15.0343C4.72854 14.8038 4.54598 14.5232 4.43146 14.2129C4.33361 13.9607 4.21718 13.5829 4.18575 12.8865C4.15146 12.1329 4.14432 11.9079 4.14432 10C4.14432 8.09289 4.15146 7.86718 4.18575 7.11432C4.21789 6.41718 4.33361 6.03932 4.43146 5.78718C4.56146 5.45432 4.71646 5.21575 4.96575 4.96575C5.21575 4.71575 5.45432 4.56146 5.78718 4.43146C6.03932 4.33361 6.41718 4.21718 7.11361 4.18575C7.86718 4.15146 8.09218 4.14432 10 4.14432ZM10 12.3807C9.36863 12.3807 8.76309 12.1299 8.31662 11.6835C7.87015 11.237 7.61932 10.6314 7.61932 10C7.61932 9.36863 7.87015 8.76309 8.31662 8.31662C8.76309 7.87015 9.36863 7.61932 10 7.61932C10.6314 7.61932 11.237 7.87015 11.6835 8.31662C12.1299 8.76309 12.3807 9.36863 12.3807 10C12.3807 10.6314 12.1299 11.237 11.6835 11.6835C11.237 12.1299 10.6314 12.3807 10 12.3807ZM10 6.33218C9.51837 6.33218 9.04141 6.42705 8.59641 6.61138C8.1514 6.7957 7.74706 7.06588 7.40647 7.40647C7.06588 7.74706 6.7957 8.1514 6.61138 8.59641C6.42705 9.04141 6.33218 9.51837 6.33218 10C6.33218 10.4817 6.42705 10.9587 6.61138 11.4037C6.7957 11.8487 7.06588 12.253 7.40647 12.5936C7.74706 12.9342 8.1514 13.2044 8.59641 13.3887C9.04141 13.573 9.51837 13.6679 10 13.6679C10.9728 13.6679 11.9057 13.2815 12.5936 12.5936C13.2815 11.9057 13.6679 10.9728 13.6679 10C13.6679 9.02726 13.2815 8.09433 12.5936 7.40647C11.9057 6.71861 10.9728 6.33218 10 6.33218ZM14.67 6.18718C14.67 6.29974 14.6479 6.4112 14.6048 6.51519C14.5617 6.61919 14.4986 6.71368 14.419 6.79327C14.3394 6.87286 14.2449 6.936 14.1409 6.97907C14.0369 7.02215 13.9255 7.04432 13.8129 7.04432C13.7003 7.04432 13.5889 7.02215 13.4849 6.97907C13.3809 6.936 13.2864 6.87286 13.2068 6.79327C13.1272 6.71368 13.0641 6.61919 13.021 6.51519C12.9779 6.4112 12.9557 6.29974 12.9557 6.18718C12.9557 5.95985 13.0461 5.74183 13.2068 5.58109C13.3675 5.42034 13.5856 5.33003 13.8129 5.33003C14.0402 5.33003 14.2582 5.42034 14.419 5.58109C14.5797 5.74183 14.67 5.95985 14.67 6.18718Z" fill="#848688"/>
</g>
</svg>
