<svg width="40" height="40" viewBox="0 0 40 40" fill="none" xmlns="http://www.w3.org/2000/svg">
<g id="img_community_attached/ic_imgdelete_gray_40">
<path id="Union" fill-rule="evenodd" clip-rule="evenodd" d="M16.3536 15.6464C16.1583 15.4512 15.8417 15.4512 15.6464 15.6464C15.4512 15.8417 15.4512 16.1583 15.6464 16.3536L19.6034 20.3105L15.6469 24.2671C15.4516 24.4624 15.4516 24.779 15.6469 24.9742C15.8421 25.1695 16.1587 25.1695 16.354 24.9742L20.3105 21.0177L24.2671 24.9742C24.4624 25.1695 24.779 25.1695 24.9742 24.9742C25.1695 24.779 25.1695 24.4624 24.9742 24.2671L21.0177 20.3105L24.9746 16.3536C25.1699 16.1583 25.1699 15.8417 24.9746 15.6464C24.7794 15.4512 24.4628 15.4512 24.2675 15.6464L20.3105 19.6034L16.3536 15.6464Z" fill="#565959"/>
</g>
</svg>
