<svg width="24" height="24" viewBox="0 0 24 24" fill="none" xmlns="http://www.w3.org/2000/svg">
<path fill-rule="evenodd" clip-rule="evenodd" d="M13.8235 5.41176C13.8235 6.19146 13.1915 6.82353 12.4118 6.82353C11.6321 6.82353 11 6.19146 11 5.41176C11 4.63207 11.6321 4 12.4118 4C13.1915 4 13.8235 4.63207 13.8235 5.41176ZM13.8235 11.9997C13.8235 12.7794 13.1915 13.4114 12.4118 13.4114C11.6321 13.4114 11 12.7794 11 11.9997C11 11.22 11.6321 10.5879 12.4118 10.5879C13.1915 10.5879 13.8235 11.22 13.8235 11.9997ZM12.4118 19.9993C13.1915 19.9993 13.8235 19.3672 13.8235 18.5875C13.8235 17.8078 13.1915 17.1758 12.4118 17.1758C11.6321 17.1758 11 17.8078 11 18.5875C11 19.3672 11.6321 19.9993 12.4118 19.9993Z" fill="#565959"/>
</svg>
