<svg width="44" height="44" viewBox="0 0 44 44" fill="none" xmlns="http://www.w3.org/2000/svg">
<path fill-rule="evenodd" clip-rule="evenodd" d="M23.8235 15.4118C23.8235 16.1915 23.1915 16.8235 22.4118 16.8235C21.6321 16.8235 21 16.1915 21 15.4118C21 14.6321 21.6321 14 22.4118 14C23.1915 14 23.8235 14.6321 23.8235 15.4118ZM23.8235 21.9997C23.8235 22.7794 23.1915 23.4114 22.4118 23.4114C21.6321 23.4114 21 22.7794 21 21.9997C21 21.22 21.6321 20.5879 22.4118 20.5879C23.1915 20.5879 23.8235 21.22 23.8235 21.9997ZM22.4118 29.9993C23.1915 29.9993 23.8235 29.3672 23.8235 28.5875C23.8235 27.8078 23.1915 27.1758 22.4118 27.1758C21.6321 27.1758 21 27.8078 21 28.5875C21 29.3672 21.6321 29.9993 22.4118 29.9993Z" fill="#565959"/>
</svg>
