<svg width="95" height="42" viewBox="0 0 95 42" fill="none" xmlns="http://www.w3.org/2000/svg">
<rect x="1" y="1" width="93" height="40" rx="20" stroke="white" stroke-width="2"/>
<path d="M35.9293 19.26C37.2813 20.0261 37.2813 21.9739 35.9293 22.74L26.986 27.8079C25.6528 28.5634 24 27.6003 24 26.0679L24 15.9321C24 14.3997 25.6528 13.4366 26.986 14.1921L35.9293 19.26Z" fill="white"/>
<path d="M55.608 27.264H53.832V20.112H52.68V26.608H50.936V13.264H52.68V18.608H53.832V13.008H55.608V27.264ZM50.488 22.608L49.448 23.968C48.52 23.392 47.32 21.92 46.952 20.656C46.632 21.968 45.4 23.632 44.264 24.288L43.128 23.04C45.144 21.696 46.072 19.648 46.072 16.832V16.208H43.672V14.72H50.104V16.208H47.88V16.8C47.88 19.584 48.792 21.616 50.488 22.608ZM69.5638 24.384C69.5638 26.128 67.6918 27.264 64.5878 27.264C61.4998 27.264 59.6278 26.128 59.6278 24.384C59.6278 22.624 61.4998 21.504 64.5878 21.504C67.6918 21.504 69.5638 22.624 69.5638 24.384ZM69.4518 21.568H67.6758V18.032H66.5078V21.008H64.7798V13.264H66.5078V16.528H67.6758V13.008H69.4518V21.568ZM64.4918 19.328L63.5478 20.736C62.6038 20.32 61.3398 19.168 60.9718 18.256C60.5718 19.36 59.4518 20.624 58.2198 21.184L57.1958 19.856C58.9238 18.896 60.0118 17.328 60.0118 15.312V13.904H61.8198V15.264C61.8198 17.248 63.0198 18.64 64.4918 19.328ZM67.6598 24.384C67.6598 23.536 66.4758 23.008 64.5878 23.008C62.7318 23.008 61.5638 23.536 61.5638 24.384C61.5638 25.248 62.7318 25.76 64.5878 25.76C66.4758 25.76 67.6598 25.248 67.6598 24.384Z" fill="white"/>
</svg>
