<svg width="24" height="24" viewBox="0 0 24 24" fill="none" xmlns="http://www.w3.org/2000/svg">
<g id="ic_profile_black_24">
<path id="Union" fill-rule="evenodd" clip-rule="evenodd" d="M14.7647 6.76471C14.7647 8.29161 13.5269 9.52941 12 9.52941C10.4731 9.52941 9.23529 8.29161 9.23529 6.76471C9.23529 5.2378 10.4731 4 12 4C13.5269 4 14.7647 5.2378 14.7647 6.76471ZM16.7647 6.76471C16.7647 9.39618 14.6315 11.5294 12 11.5294C9.36853 11.5294 7.23529 9.39618 7.23529 6.76471C7.23529 4.13323 9.36853 2 12 2C14.6315 2 16.7647 4.13323 16.7647 6.76471ZM5 19.4706C5 17.0665 6.94888 15.1176 9.35294 15.1176H14.6471C17.0511 15.1176 19 17.0665 19 19.4706V19.5882H5V19.4706ZM3 19.4706C3 15.962 5.84431 13.1176 9.35294 13.1176H14.6471C18.1557 13.1176 21 15.962 21 19.4706V20.5294C21 21.1142 20.5259 21.5882 19.9412 21.5882H4.05882C3.47405 21.5882 3 21.1142 3 20.5294V19.4706Z" fill="black"/>
</g>
</svg>
