<svg width="24" height="24" viewBox="0 0 24 24" fill="none" xmlns="http://www.w3.org/2000/svg">
<path d="M9.625 12C9.625 12.663 9.36161 13.2989 8.89277 13.7678C8.42393 14.2366 7.78804 14.5 7.125 14.5C6.46196 14.5 5.82607 14.2366 5.35723 13.7678C4.88839 13.2989 4.625 12.663 4.625 12C4.625 11.337 4.88839 10.7011 5.35723 10.2322C5.82607 9.76339 6.46196 9.5 7.125 9.5C7.78804 9.5 8.42393 9.76339 8.89277 10.2322C9.36161 10.7011 9.625 11.337 9.625 12Z" stroke="#565959" stroke-width="1.5"/>
<path d="M14.625 6.5L9.625 10M14.625 17.5L9.625 14" stroke="#565959" stroke-width="1.5" stroke-linecap="round"/>
<path d="M19.625 18.5C19.625 19.163 19.3616 19.7989 18.8928 20.2678C18.4239 20.7366 17.788 21 17.125 21C16.462 21 15.8261 20.7366 15.3572 20.2678C14.8884 19.7989 14.625 19.163 14.625 18.5C14.625 17.837 14.8884 17.2011 15.3572 16.7322C15.8261 16.2634 16.462 16 17.125 16C17.788 16 18.4239 16.2634 18.8928 16.7322C19.3616 17.2011 19.625 17.837 19.625 18.5ZM19.625 5.5C19.625 6.16304 19.3616 6.79893 18.8928 7.26777C18.4239 7.73661 17.788 8 17.125 8C16.462 8 15.8261 7.73661 15.3572 7.26777C14.8884 6.79893 14.625 6.16304 14.625 5.5C14.625 4.83696 14.8884 4.20107 15.3572 3.73223C15.8261 3.26339 16.462 3 17.125 3C17.788 3 18.4239 3.26339 18.8928 3.73223C19.3616 4.20107 19.625 4.83696 19.625 5.5Z" stroke="#565959" stroke-width="1.5"/>
</svg>
