<svg xmlns="http://www.w3.org/2000/svg" width="21" height="20" viewBox="0 0 21 20" fill="none">
  <path fill-rule="evenodd" clip-rule="evenodd" d="M9.19531 3.4375C12.0992 3.4375 14.4539 5.79147 14.4541 8.69531C14.4541 11.5993 12.0993 13.9541 9.19531 13.9541C6.29147 13.9539 3.9375 11.5992 3.9375 8.69531C3.93768 5.79158 6.29158 3.43768 9.19531 3.4375ZM14.8591 13.0329C15.7811 11.8309 16.3291 10.3271 16.3291 8.69531C16.3289 4.75594 13.1347 1.5625 9.19531 1.5625C5.25605 1.56268 2.06268 4.75605 2.0625 8.69531C2.0625 12.6347 5.25594 15.8289 9.19531 15.8291C10.8271 15.8291 12.3309 15.2811 13.5329 14.3591L17.3364 18.1626L17.4077 18.2271C17.7759 18.5273 18.3194 18.5058 18.6626 18.1626C19.0058 17.8194 19.0273 17.2759 18.7271 16.9077L18.6626 16.8364L14.8591 13.0329Z" fill="#CCCCCC"/>
</svg>