<svg width="18" height="24" viewBox="0 0 18 24" fill="none" xmlns="http://www.w3.org/2000/svg">
<g id="ic_share_iris1_25">
<path id="Ellipse 5290" d="M6.4 12.4593C6.4 14.0665 5.12991 15.3393 3.6 15.3393C2.07009 15.3393 0.8 14.0665 0.8 12.4593C0.8 10.852 2.07009 9.5793 3.6 9.5793C5.12991 9.5793 6.4 10.852 6.4 12.4593Z" stroke="#4D4ECD" stroke-width="1.6"/>
<path id="Ellipse 5291" d="M17.2008 4.18C17.2008 5.78725 15.9307 7.06 14.4008 7.06C12.8709 7.06 11.6008 5.78725 11.6008 4.18C11.6008 2.57275 12.8709 1.3 14.4008 1.3C15.9307 1.3 17.2008 2.57275 17.2008 4.18Z" stroke="#4D4ECD" stroke-width="1.6"/>
<path id="Ellipse 5292" d="M17.2008 19.8206C17.2008 21.4279 15.9307 22.7006 14.4008 22.7006C12.8709 22.7006 11.6008 21.4279 11.6008 19.8206C11.6008 18.2134 12.8709 16.9406 14.4008 16.9406C15.9307 16.9406 17.2008 18.2134 17.2008 19.8206Z" stroke="#4D4ECD" stroke-width="1.6"/>
<line id="Line 121" y1="-0.8" x2="7.80064" y2="-0.8" transform="matrix(0.807626 -0.589695 0.572779 0.81971 6.30078 10.6191)" stroke="#4D4ECD" stroke-width="1.6"/>
<line id="Line 122" y1="-0.8" x2="7.80064" y2="-0.8" transform="matrix(0.807626 0.589695 0.572779 -0.81971 6.30078 13.3809)" stroke="#4D4ECD" stroke-width="1.6"/>
</g>
</svg>
