<svg width="32" height="32" viewBox="0 0 32 32" fill="none" xmlns="http://www.w3.org/2000/svg">
<path fill-rule="evenodd" clip-rule="evenodd" d="M5.5 13.913C5.5 9.26665 9.26665 5.5 13.913 5.5C18.5594 5.5 22.3261 9.26665 22.3261 13.913C22.3261 18.5594 18.5594 22.3261 13.913 22.3261C9.26665 22.3261 5.5 18.5594 5.5 13.913ZM13.913 2.5C7.60979 2.5 2.5 7.60979 2.5 13.913C2.5 20.2163 7.60979 25.3261 13.913 25.3261C16.5237 25.3261 18.9295 24.4496 20.8525 22.9748L26.9385 29.0608C27.5243 29.6466 28.474 29.6466 29.0598 29.0608C29.6456 28.475 29.6456 27.5253 29.0598 26.9395L22.9739 20.8536C24.4492 18.9305 25.3261 16.5242 25.3261 13.913C25.3261 7.60979 20.2163 2.5 13.913 2.5Z" fill="#CCCCCC"/>
</svg>
