<svg width="21" height="20" viewBox="0 0 21 20" fill="none" xmlns="http://www.w3.org/2000/svg">
<g id="Property 1=ic_toolcard_free_20">
<path id="Union" fill-rule="evenodd" clip-rule="evenodd" d="M4.83594 1.75H16.8359C18.0786 1.75 19.0859 2.75736 19.0859 4V16C19.0859 17.2426 18.0786 18.25 16.8359 18.25H4.83594C3.5933 18.25 2.58594 17.2426 2.58594 16V4C2.58594 2.75736 3.5933 1.75 4.83594 1.75ZM1.83594 4C1.83594 2.34315 3.17908 1 4.83594 1H16.8359C18.4928 1 19.8359 2.34315 19.8359 4V16C19.8359 17.6569 18.4928 19 16.8359 19H4.83594C3.17908 19 1.83594 17.6569 1.83594 16V4ZM15.3359 9.82968V8.56894H14.4359L14.9609 6.24993H13.5693L13.1443 8.56894H12.0943L11.6276 6.24993H10.1193L9.66094 8.56894H8.6026L8.1776 6.24993H6.71094L7.23594 8.56894H6.33594V9.82968H7.51927L8.41094 13.7499H9.78594L10.8359 8.55974L11.8859 13.7499H13.2609L14.1526 9.82968H15.3359ZM9.11094 11.3113L8.83594 9.82968H9.4026L9.11094 11.3113ZM12.9193 9.82968L12.6443 11.3389L12.3443 9.82968H12.9193Z" fill="#F77B1B"/>
</g>
</svg>
