<svg width="21" height="20" viewBox="0 0 21 20" fill="none" xmlns="http://www.w3.org/2000/svg">
<g id="Property 1=ic_toolcard_partiallypaid_20">
<g id="Union">
<mask id="path-1-inside-1_40001900_19784" fill="white">
<path fill-rule="evenodd" clip-rule="evenodd" d="M10.8359 19H4.83594C3.17908 19 1.83594 17.6569 1.83594 16V4C1.83594 2.34315 3.17908 1 4.83594 1H10.8359H16.8359C18.4928 1 19.8359 2.34315 19.8359 4V16C19.8359 17.6569 18.4928 19 16.8359 19H10.8359ZM10.8359 1.75H16.8359C18.0786 1.75 19.0859 2.75736 19.0859 4V16C19.0859 17.2426 18.0786 18.25 16.8359 18.25H10.8359V8.55996L11.8859 13.7501H13.2609L14.1526 9.8299H15.3359V8.56916H14.4359L14.9609 6.25015H13.4943L13.0693 8.56916H12.0109L11.5526 6.25015H10.8359V1.75ZM10.8359 6.25015V8.55996L9.78594 13.7501H8.41094L7.51927 9.8299H6.33594V8.56916H7.23594L6.71094 6.25015H8.1776L8.6026 8.56916H9.66094L10.1193 6.25015H10.8359ZM12.5609 11.3115L12.8359 9.8299H12.2693L12.5609 11.3115ZM9.11094 11.3115L8.83594 9.8299H9.4026L9.11094 11.3115Z"/>
</mask>
<path fill-rule="evenodd" clip-rule="evenodd" d="M10.8359 19H4.83594C3.17908 19 1.83594 17.6569 1.83594 16V4C1.83594 2.34315 3.17908 1 4.83594 1H10.8359H16.8359C18.4928 1 19.8359 2.34315 19.8359 4V16C19.8359 17.6569 18.4928 19 16.8359 19H10.8359ZM10.8359 1.75H16.8359C18.0786 1.75 19.0859 2.75736 19.0859 4V16C19.0859 17.2426 18.0786 18.25 16.8359 18.25H10.8359V8.55996L11.8859 13.7501H13.2609L14.1526 9.8299H15.3359V8.56916H14.4359L14.9609 6.25015H13.4943L13.0693 8.56916H12.0109L11.5526 6.25015H10.8359V1.75ZM10.8359 6.25015V8.55996L9.78594 13.7501H8.41094L7.51927 9.8299H6.33594V8.56916H7.23594L6.71094 6.25015H8.1776L8.6026 8.56916H9.66094L10.1193 6.25015H10.8359ZM12.5609 11.3115L12.8359 9.8299H12.2693L12.5609 11.3115ZM9.11094 11.3115L8.83594 9.8299H9.4026L9.11094 11.3115Z" fill="#F77B1B"/>
<path d="M10.8359 1.75V1H10.0859V1.75H10.8359ZM10.8359 18.25H10.0859V19H10.8359V18.25ZM11.8859 13.7501L11.1508 13.8989L11.2725 14.5001H11.8859V13.7501ZM13.2609 13.7501V14.5001H13.8595L13.9923 13.9165L13.2609 13.7501ZM14.1526 9.8299V9.0799H13.554L13.4213 9.66356L14.1526 9.8299ZM15.3359 9.8299V10.5799H16.0859V9.8299H15.3359ZM15.3359 8.56916H16.0859V7.81916H15.3359V8.56916ZM14.4359 8.56916L13.7044 8.40356L13.4972 9.31916H14.4359V8.56916ZM14.9609 6.25015L15.6924 6.41575L15.8997 5.50015H14.9609V6.25015ZM13.4943 6.25015V5.50015H12.8692L12.7566 6.11495L13.4943 6.25015ZM13.0693 8.56916V9.31916H13.6943L13.807 8.70436L13.0693 8.56916ZM12.0109 8.56916L11.2752 8.71458L11.3947 9.31916H12.0109V8.56916ZM11.5526 6.25015L12.2884 6.10473L12.1689 5.50015H11.5526V6.25015ZM9.78594 13.7501V14.5001H10.3994L10.521 13.8989L9.78594 13.7501ZM8.41094 13.7501L7.67962 13.9165L7.81237 14.5001H8.41094V13.7501ZM7.51927 9.8299L8.25059 9.66356L8.11784 9.0799H7.51927V9.8299ZM6.33594 9.8299H5.58594V10.5799H6.33594V9.8299ZM6.33594 8.56916V7.81916H5.58594V8.56916H6.33594ZM7.23594 8.56916V9.31916H8.17471L7.96743 8.40356L7.23594 8.56916ZM6.71094 6.25015V5.50015H5.77217L5.97945 6.41575L6.71094 6.25015ZM8.1776 6.25015L8.91532 6.11495L8.80264 5.50015H8.1776V6.25015ZM8.6026 8.56916L7.86489 8.70436L7.97756 9.31916H8.6026V8.56916ZM9.66094 8.56916V9.31916H10.2772L10.3967 8.71458L9.66094 8.56916ZM10.1193 6.25015V5.50015H9.50299L9.3835 6.10473L10.1193 6.25015ZM12.8359 9.8299L13.5733 9.96677L13.738 9.0799H12.8359V9.8299ZM12.5609 11.3115L11.8251 11.4564L13.2983 11.4484L12.5609 11.3115ZM12.2693 9.8299V9.0799H11.3572L11.5334 9.97477L12.2693 9.8299ZM8.83594 9.8299V9.0799H7.93392L8.09853 9.96677L8.83594 9.8299ZM9.11094 11.3115L8.37353 11.4484L9.84681 11.4564L9.11094 11.3115ZM9.4026 9.8299L10.1385 9.97477L10.3146 9.0799H9.4026V9.8299ZM10.8359 18.25H4.83594V19.75H10.8359V18.25ZM4.83594 18.25C3.5933 18.25 2.58594 17.2426 2.58594 16H1.08594C1.08594 18.0711 2.76487 19.75 4.83594 19.75V18.25ZM2.58594 16V4H1.08594V16H2.58594ZM2.58594 4C2.58594 2.75736 3.5933 1.75 4.83594 1.75V0.25C2.76487 0.25 1.08594 1.92893 1.08594 4H2.58594ZM4.83594 1.75H10.8359V0.25H4.83594V1.75ZM10.8359 1.75H16.8359V0.25H10.8359V1.75ZM16.8359 1.75C18.0786 1.75 19.0859 2.75736 19.0859 4H20.5859C20.5859 1.92893 18.907 0.25 16.8359 0.25V1.75ZM19.0859 4V16H20.5859V4H19.0859ZM19.0859 16C19.0859 17.2426 18.0786 18.25 16.8359 18.25V19.75C18.907 19.75 20.5859 18.0711 20.5859 16H19.0859ZM16.8359 18.25H10.8359V19.75H16.8359V18.25ZM10.8359 2.5H16.8359V1H10.8359V2.5ZM16.8359 2.5C17.6644 2.5 18.3359 3.17157 18.3359 4H19.8359C19.8359 2.34315 18.4928 1 16.8359 1V2.5ZM18.3359 4V16H19.8359V4H18.3359ZM18.3359 16C18.3359 16.8284 17.6644 17.5 16.8359 17.5V19C18.4928 19 19.8359 17.6569 19.8359 16H18.3359ZM16.8359 17.5H10.8359V19H16.8359V17.5ZM10.0859 8.55996V18.25H11.5859V8.55996H10.0859ZM12.621 13.6014L11.571 8.41125L10.1008 8.70868L11.1508 13.8989L12.621 13.6014ZM13.2609 13.0001H11.8859V14.5001H13.2609V13.0001ZM13.4213 9.66356L12.5296 13.5838L13.9923 13.9165L14.8839 9.99624L13.4213 9.66356ZM15.3359 9.0799H14.1526V10.5799H15.3359V9.0799ZM14.5859 8.56916V9.8299H16.0859V8.56916H14.5859ZM14.4359 9.31916H15.3359V7.81916H14.4359V9.31916ZM14.2294 6.08455L13.7044 8.40356L15.1674 8.73477L15.6924 6.41575L14.2294 6.08455ZM13.4943 7.00015H14.9609V5.50015H13.4943V7.00015ZM13.807 8.70436L14.232 6.38534L12.7566 6.11495L12.3316 8.43397L13.807 8.70436ZM12.0109 9.31916H13.0693V7.81916H12.0109V9.31916ZM10.8168 6.39556L11.2752 8.71458L12.7467 8.42375L12.2884 6.10473L10.8168 6.39556ZM10.8359 7.00015H11.5526V5.50015H10.8359V7.00015ZM10.0859 1.75V6.25015H11.5859V1.75H10.0859ZM11.5859 8.55996V6.25015H10.0859V8.55996H11.5859ZM10.521 13.8989L11.571 8.70868L10.1008 8.41125L9.05083 13.6014L10.521 13.8989ZM8.41094 14.5001H9.78594V13.0001H8.41094V14.5001ZM6.78795 9.99624L7.67962 13.9165L9.14226 13.5838L8.25059 9.66356L6.78795 9.99624ZM6.33594 10.5799H7.51927V9.0799H6.33594V10.5799ZM5.58594 8.56916V9.8299H7.08594V8.56916H5.58594ZM7.23594 7.81916H6.33594V9.31916H7.23594V7.81916ZM5.97945 6.41575L6.50445 8.73477L7.96743 8.40356L7.44243 6.08455L5.97945 6.41575ZM8.1776 5.50015H6.71094V7.00015H8.1776V5.50015ZM9.34032 8.43397L8.91532 6.11495L7.43989 6.38534L7.86489 8.70436L9.34032 8.43397ZM9.66094 7.81916H8.6026V9.31916H9.66094V7.81916ZM9.3835 6.10473L8.92517 8.42375L10.3967 8.71458L10.855 6.39556L9.3835 6.10473ZM10.8359 5.50015H10.1193V7.00015H10.8359V5.50015ZM12.0985 9.69303L11.8235 11.1746L13.2983 11.4484L13.5733 9.96677L12.0985 9.69303ZM12.2693 10.5799H12.8359V9.0799H12.2693V10.5799ZM13.2968 11.1666L13.0051 9.68504L11.5334 9.97477L11.8251 11.4564L13.2968 11.1666ZM8.09853 9.96677L8.37353 11.4484L9.84834 11.1746L9.57334 9.69303L8.09853 9.96677ZM9.4026 9.0799H8.83594V10.5799H9.4026V9.0799ZM9.84681 11.4564L10.1385 9.97477L8.66673 9.68504L8.37506 11.1666L9.84681 11.4564Z" fill="#F77B1B" mask="url(#path-1-inside-1_40001900_19784)"/>
</g>
</g>
</svg>
