<svg width="122" height="42" viewBox="0 0 122 42" fill="none" xmlns="http://www.w3.org/2000/svg">
<rect x="1" y="1" width="120" height="40" rx="20" stroke="white" stroke-width="2"/>
<path d="M33.088 22.592L32.048 23.952C30.736 23.296 29.04 21.456 28.624 20.08C28.272 21.536 26.832 23.44 25.168 24.256L24.016 22.864C26.384 21.568 27.632 19.376 27.632 16.384V16H24.752V14.464H32.352V16H29.568V16.368C29.568 19.376 30.944 21.408 33.088 22.592ZM35.632 13.008V18.496H37.664V20.048H35.632V27.264H33.76V13.008H35.632ZM50.4518 27.264H48.6758V13.008H50.4518V27.264ZM47.6038 26.608H45.8598V19.44H43.9398V17.92H45.8598V13.28H47.6038V26.608ZM45.5238 22.464L44.4678 23.792C43.5238 23.216 42.2438 21.792 41.8758 20.384C41.4758 21.872 40.4038 23.344 39.0758 24.144L37.9718 22.864C39.7798 21.696 40.9638 19.552 40.9638 16.512V14.384H42.7558V16.496C42.7558 19.264 43.7958 21.424 45.5238 22.464ZM63.9595 27.264H62.0875V13.008H63.9595V27.264ZM60.6475 17.824H52.3435V16.336H60.6475V17.824ZM54.3435 15.408V13.92H58.7435V15.408H54.3435ZM53.1115 21.44C53.1115 19.712 54.5355 18.368 56.5835 18.368C58.6635 18.368 60.0715 19.664 60.0715 21.44C60.0715 23.2 58.6635 24.512 56.5835 24.512C54.5355 24.512 53.1115 23.264 53.1115 21.44ZM54.9675 21.44C54.9675 22.384 55.6235 23.008 56.5835 23.008C57.6555 23.008 58.2475 22.384 58.2475 21.44C58.2475 20.496 57.5595 19.872 56.5835 19.872C55.6395 19.872 54.9675 20.496 54.9675 21.44ZM83.0944 25.488H70.2144V24H75.6864V21.232H71.7664V13.984H73.6224V16.192H79.6864V13.952H81.5584V21.232H77.5584V24H83.0944V25.488ZM79.6864 19.744V17.632H73.6224V19.744H79.6864ZM95.8501 27.264H93.9781V13.008H95.8501V27.264ZM91.4661 14.496C91.3541 18.8 89.4501 22.32 85.0981 24.688L83.9461 23.28C87.0661 21.856 89.1941 18.88 89.4501 16.048H84.8101V14.496H91.4661Z" fill="white"/>
</svg>
