<svg width="120" height="120" viewBox="0 0 120 120" fill="none" xmlns="http://www.w3.org/2000/svg">
<path d="M19.4785 42.915L17.6875 44.8907C16.2038 46.5274 16.3278 49.0571 17.9645 50.5408L64.3932 92.6298L68.8708 87.6906L19.4785 42.915Z" fill="#CCCCCC"/>
<path d="M28.7096 38.6865C27.0729 37.2028 24.5433 37.3268 23.0596 38.9635L22.1641 39.9514L71.5563 84.7269L75.1384 80.7755L28.7096 38.6865Z" fill="#F0F2F2"/>
<rect width="5.33332" height="66.6667" transform="matrix(-0.671633 0.740884 0.740884 0.671633 22.1641 39.9521)" fill="#EBEBEB"/>
<path d="M83.9458 100.831C84.8157 101.195 85.6607 100.263 85.2125 99.4333L75.1383 80.7757L64.3922 92.6298L83.9458 100.831Z" fill="#EBEBEB"/>
<path d="M83.927 100.814C84.7984 101.182 85.6466 100.247 85.1949 99.4154L83.0943 95.5497L79.8744 99.1017L83.927 100.814Z" fill="#565959"/>
<path fill-rule="evenodd" clip-rule="evenodd" d="M79 53C93.3594 53 105 43.8218 105 32.5C105 21.1782 93.3594 12 79 12C64.6406 12 53 21.1782 53 32.5C53 38.4838 56.2516 43.8689 61.4377 47.6166L58.8079 55.1772C58.5132 56.0246 59.3972 56.8014 60.1996 56.4002L69.7005 51.6498C72.588 52.5221 75.7232 53 79 53Z" fill="#EBEBEB"/>
<path fill-rule="evenodd" clip-rule="evenodd" d="M72 33C72 34.6569 70.6569 36 69 36C67.3431 36 66 34.6569 66 33C66 31.3431 67.3431 30 69 30C70.6569 30 72 31.3431 72 33ZM82 33C82 34.6569 80.6569 36 79 36C77.3431 36 76 34.6569 76 33C76 31.3431 77.3431 30 79 30C80.6569 30 82 31.3431 82 33ZM89 36C90.6569 36 92 34.6569 92 33C92 31.3431 90.6569 30 89 30C87.3431 30 86 31.3431 86 33C86 34.6569 87.3431 36 89 36Z" fill="#ACACAC"/>
</svg>
