<svg width="71" height="17" viewBox="0 0 71 17" fill="none" xmlns="http://www.w3.org/2000/svg">
<g id="img_textlogo">
<path id="Vector" d="M64.2432 16.1301C63.1938 16.1301 62.2882 15.8713 61.5263 15.3538C60.7644 14.8363 60.175 14.1462 59.7581 13.2837C59.3556 12.4068 59.1543 11.4436 59.1543 10.3942C59.1543 9.30167 59.3843 8.32413 59.8443 7.4616C60.3187 6.58469 60.9872 5.89466 61.8497 5.39151C62.7266 4.87399 63.7689 4.61523 64.9764 4.61523C66.1696 4.61523 67.183 4.87399 68.0168 5.39151C68.865 5.89466 69.5119 6.58469 69.9575 7.4616C70.4175 8.32413 70.6476 9.28729 70.6476 10.3511V15.8713H68.1678V13.8228H68.1246C67.909 14.2253 67.6287 14.6062 67.2837 14.9656C66.9387 15.3107 66.5146 15.591 66.0114 15.8066C65.5083 16.0222 64.9189 16.1301 64.2432 16.1301ZM64.9117 14.0169C65.5586 14.0169 66.1193 13.8587 66.5936 13.5425C67.0824 13.2118 67.4562 12.7734 67.7149 12.2271C67.9881 11.6664 68.1246 11.0411 68.1246 10.3511C68.1246 9.66106 67.9953 9.05009 67.7365 8.5182C67.4777 7.97193 67.1112 7.54066 66.6368 7.2244C66.1624 6.89376 65.5945 6.72844 64.9333 6.72844C64.2432 6.72844 63.6538 6.89376 63.1651 7.2244C62.6763 7.54066 62.3025 7.97193 62.0438 8.5182C61.785 9.06447 61.6556 9.68262 61.6556 10.3726C61.6556 11.0483 61.785 11.6664 62.0438 12.2271C62.3025 12.7734 62.6691 13.2118 63.1435 13.5425C63.6323 13.8587 64.2217 14.0169 64.9117 14.0169Z" fill="white"/>
<path id="Vector_2" d="M51.8276 16.1309C50.9507 16.1309 50.1529 15.9943 49.4341 15.7212C48.7297 15.4336 48.1259 15.0239 47.6228 14.492C47.134 13.9601 46.7531 13.3348 46.4799 12.616C46.2212 11.8829 46.0918 11.0778 46.0918 10.2009C46.0918 9.07965 46.3146 8.10211 46.7603 7.26833C47.2203 6.43454 47.8528 5.78764 48.6578 5.32762C49.4629 4.85323 50.3829 4.61603 51.4179 4.61603C51.9355 4.61603 52.4242 4.6951 52.8842 4.85323C53.3443 5.01136 53.7612 5.23418 54.1349 5.52169C54.5087 5.80921 54.8106 6.14703 55.0406 6.53517H55.0621V0.130859H57.5419V10.2441C57.5419 11.4516 57.2975 12.501 56.8088 13.3923C56.3344 14.2692 55.6659 14.9449 54.8034 15.4193C53.9552 15.8937 52.9633 16.1309 51.8276 16.1309ZM51.8276 14.0177C52.4602 14.0177 53.0136 13.8667 53.488 13.5648C53.9768 13.2486 54.3577 12.8173 54.6309 12.271C54.904 11.7247 55.0406 11.0922 55.0406 10.3734C55.0406 9.65467 54.904 9.02214 54.6309 8.47587C54.3577 7.9296 53.9768 7.50552 53.488 7.20363C53.0136 6.88737 52.453 6.72924 51.8061 6.72924C51.1879 6.72924 50.6345 6.88737 50.1457 7.20363C49.6569 7.5199 49.276 7.95116 49.0028 8.49744C48.7297 9.04371 48.5931 9.66904 48.5931 10.3734C48.5931 11.0922 48.7297 11.7247 49.0028 12.271C49.276 12.8173 49.6569 13.2486 50.1457 13.5648C50.6488 13.8667 51.2095 14.0177 51.8276 14.0177Z" fill="white"/>
<path id="Vector_3" d="M39.1277 16.1311C38.0639 16.1311 37.1367 15.9226 36.346 15.5057C35.5553 15.0745 34.9444 14.4851 34.5131 13.7375C34.0818 12.99 33.8662 12.149 33.8662 11.2146V4.875H36.346V11.1931C36.346 11.7537 36.4682 12.2497 36.7126 12.6809C36.9713 13.0978 37.3092 13.4285 37.7261 13.6728C38.1573 13.9029 38.6245 14.0179 39.1277 14.0179C39.6308 14.0179 40.0908 13.9029 40.5077 13.6728C40.939 13.4285 41.2768 13.0978 41.5212 12.6809C41.78 12.2497 41.9093 11.7537 41.9093 11.1931V4.875H44.3891V11.2146C44.3891 12.149 44.1735 12.99 43.7422 13.7375C43.311 14.4851 42.7 15.0745 41.9093 15.5057C41.1187 15.9226 40.1915 16.1311 39.1277 16.1311Z" fill="white"/>
<path id="Vector_4" d="M27.0146 15.8723V8.00169C27.0146 7.02415 27.2878 6.26224 27.8341 5.71597C28.3947 5.15532 29.1638 4.875 30.1413 4.875H32.7936V6.98821H30.5942C30.2491 6.98821 29.976 7.08884 29.7748 7.2901C29.5879 7.49135 29.4944 7.76449 29.4944 8.1095V15.8723H27.0146Z" fill="white"/>
<path id="Vector_5" d="M18.3761 16.1301C17.3266 16.1301 16.421 15.8713 15.6591 15.3538C14.8972 14.8363 14.3078 14.1462 13.8909 13.2837C13.4884 12.4068 13.2871 11.4436 13.2871 10.3942C13.2871 9.30167 13.5171 8.32413 13.9771 7.4616C14.4515 6.58469 15.12 5.89466 15.9825 5.39151C16.8594 4.87399 17.9017 4.61523 19.1092 4.61523C20.3024 4.61523 21.3159 4.87399 22.1496 5.39151C22.9978 5.89466 23.6447 6.58469 24.0903 7.4616C24.5504 8.32413 24.7804 9.28729 24.7804 10.3511V15.8713H22.3006V13.8228H22.2575C22.0418 14.2253 21.7615 14.6062 21.4165 14.9656C21.0715 15.3107 20.6474 15.591 20.1443 15.8066C19.6411 16.0222 19.0517 16.1301 18.3761 16.1301ZM19.0445 14.0169C19.6914 14.0169 20.2521 13.8587 20.7265 13.5425C21.2152 13.2118 21.589 12.7734 21.8478 12.2271C22.1209 11.6664 22.2575 11.0411 22.2575 10.3511C22.2575 9.66106 22.1281 9.05009 21.8693 8.5182C21.6106 7.97193 21.244 7.54066 20.7696 7.2244C20.2952 6.89376 19.7274 6.72844 19.0661 6.72844C18.3761 6.72844 17.7867 6.89376 17.2979 7.2244C16.8091 7.54066 16.4354 7.97193 16.1766 8.5182C15.9178 9.06447 15.7885 9.68262 15.7885 10.3726C15.7885 11.0483 15.9178 11.6664 16.1766 12.2271C16.4354 12.7734 16.8019 13.2118 17.2763 13.5425C17.7651 13.8587 18.3545 14.0169 19.0445 14.0169Z" fill="white"/>
<path id="Vector_6" d="M5.96143 16.1309C5.08453 16.1309 4.28668 15.9943 3.5679 15.7212C2.8635 15.4336 2.25973 15.0239 1.75658 14.492C1.26781 13.9601 0.886862 13.3348 0.613726 12.616C0.354966 11.8829 0.225586 11.0778 0.225586 10.2009C0.225586 9.07965 0.448407 8.10211 0.894049 7.26833C1.35407 6.43454 1.98659 5.78764 2.79162 5.32762C3.59666 4.85323 4.51669 4.61603 5.55173 4.61603C6.06925 4.61603 6.55802 4.6951 7.01804 4.85323C7.47806 5.01136 7.89495 5.23418 8.26871 5.52169C8.64248 5.80921 8.94436 6.14703 9.17437 6.53517H9.19594V0.130859H11.6757V10.2441C11.6757 11.4516 11.4313 12.501 10.9426 13.3923C10.4682 14.2692 9.79971 14.9449 8.93718 15.4193C8.08902 15.8937 7.0971 16.1309 5.96143 16.1309ZM5.96143 14.0177C6.59396 14.0177 7.14742 13.8667 7.62181 13.5648C8.11058 13.2486 8.49153 12.8173 8.76467 12.271C9.0378 11.7247 9.17437 11.0922 9.17437 10.3734C9.17437 9.65467 9.0378 9.02214 8.76467 8.47587C8.49153 7.9296 8.11058 7.50552 7.62181 7.20363C7.14742 6.88737 6.58677 6.72924 5.93987 6.72924C5.32172 6.72924 4.76826 6.88737 4.27949 7.20363C3.79073 7.5199 3.40977 7.95116 3.13664 8.49744C2.8635 9.04371 2.72693 9.66904 2.72693 10.3734C2.72693 11.0922 2.8635 11.7247 3.13664 12.271C3.40977 12.8173 3.79073 13.2486 4.27949 13.5648C4.78264 13.8667 5.34329 14.0177 5.96143 14.0177Z" fill="white"/>
</g>
</svg>
