<svg width="126" height="98" viewBox="0 0 126 98" fill="none" xmlns="http://www.w3.org/2000/svg">
<path d="M92.5 91C92.5 94 79.5163 94 63.5 94C47.4837 94 34.5 94 34.5 91C34.5 88 47.4837 88 63.5 88C79.5163 88 92.5 88.6923 92.5 91Z" fill="#B9B9F6"/>
<path fill-rule="evenodd" clip-rule="evenodd" d="M77.4577 46.9919C76.1983 42.8224 78.1057 35.8375 82.6778 29.2588C86.4935 23.7685 91.2379 19.8954 95.2494 18.5775C98.9328 16.5635 105.446 17.2888 111.616 20.7511C119.41 25.1244 123.705 32.2081 121.211 36.5731C119.421 39.7046 114.623 40.5861 109.176 39.2194C110.512 41.8277 110.745 44.4393 109.566 46.5024C107.728 49.7173 102.975 50.7034 97.7142 49.3824C98.7846 51.604 98.9125 53.9111 97.8444 55.7802C95.7022 59.5285 89.5608 60.0955 84.1272 57.0465C79.7066 54.566 77.1164 50.4564 77.4577 46.9919Z" fill="#4D4ECD"/>
<path fill-rule="evenodd" clip-rule="evenodd" d="M48.1931 56.33C46.7603 52.2158 41.0966 47.6468 33.508 44.9493C27.1652 42.6946 21.0217 42.2963 16.9885 43.5539C12.8158 44.0607 7.96594 48.4129 5.00029 54.7825C1.24825 62.8412 1.93308 71.0776 6.5299 73.179C9.82753 74.6865 14.2425 72.6273 17.8599 68.3678C18.3127 71.2557 19.6616 73.5091 21.833 74.5017C25.2187 76.0495 29.6598 74.1004 33.1529 69.985C33.5922 72.4087 34.8476 74.3566 36.8163 75.2565C40.7637 77.061 46.0842 73.9693 48.7001 68.3509C50.8281 63.7804 50.5106 58.9459 48.1931 56.33Z" fill="#4D4ECD"/>
<rect x="0.936444" y="0.4801" width="34.1384" height="34.1384" rx="5.19497" transform="matrix(0.952643 -0.30409 0.309176 0.951005 40.3946 45.4411)" fill="white" stroke="#4D4ECD" stroke-width="1.48428"/>
<path fill-rule="evenodd" clip-rule="evenodd" d="M46.6135 44.739L69.2373 37.5173C71.5801 36.7695 74.0956 38.0592 74.8559 40.3979L82.1984 62.9828C82.9587 65.3215 81.6759 67.8237 79.3332 68.5715L56.7094 75.7931C54.3666 76.541 51.851 75.2513 51.0907 72.9125L43.7483 50.3277C42.9879 47.9889 44.2707 45.4868 46.6135 44.739ZM42.3343 50.779C41.3205 47.6607 43.0309 44.3245 46.1546 43.3274L68.7784 36.1058C71.9021 35.1087 75.2562 36.8282 76.2699 39.9466L83.6124 62.5314C84.6262 65.6497 82.9157 68.9859 79.7921 69.983L57.1683 77.2047C54.0446 78.2018 50.6905 76.4822 49.6767 73.3639L42.3343 50.779ZM71.3532 53.6296L70.5818 51.2568L68.885 51.7984L68.4559 47.1179L65.8321 47.9554L66.4498 52.5758L64.4702 53.2077L62.1715 49.1239L59.3278 50.0317L59.8826 54.6721L57.8873 55.309L55.6671 51.2002L52.902 52.0828L55.3107 56.1314L53.614 56.673L54.3854 59.0458L56.6163 58.3337L60.6961 65.1753L63.2884 64.3478L62.0922 53.9476L67.2475 63.084L69.8399 62.2565L69.1222 54.3417L71.3532 53.6296ZM60.5237 60.1643L59.0986 57.5413L60.167 57.2003L60.5237 60.1643ZM66.797 55.084L67.202 58.0899L65.713 55.43L66.797 55.084Z" fill="#4D4ECD"/>
<g filter="url(#filter0_i_40003896_40288)">
<path fill-rule="evenodd" clip-rule="evenodd" d="M53.2501 25.3273C53.2782 26.4353 51.8897 26.96 51.1661 26.1148L41.2395 14.5194C40.7093 13.9001 40.9539 12.9474 41.7171 12.659L51.2583 9.05386C52.0215 8.76548 52.8442 9.31493 52.8647 10.1268L53.2501 25.3273ZM47.4911 31.1824C48.4683 31.7201 48.2173 33.1889 47.1159 33.3779L32.006 35.9701C31.2042 36.1077 30.5087 35.4136 30.6456 34.6126L32.3494 24.6432C32.4863 23.8421 33.3737 23.4137 34.0851 23.8051L47.4911 31.1824ZM59.9291 27.327C59.5656 28.3752 60.7291 29.289 61.676 28.6988L74.6662 20.603C75.3604 20.1704 75.4174 19.1886 74.7774 18.686L66.7741 12.401C66.1342 11.8985 65.1825 12.1777 64.916 12.9462L59.9291 27.327Z" fill="#F77B1B"/>
</g>
<defs>
<filter id="filter0_i_40003896_40288" x="30.6283" y="8.97656" width="47.423" height="28.8965" filterUnits="userSpaceOnUse" color-interpolation-filters="sRGB">
<feFlood flood-opacity="0" result="BackgroundImageFix"/>
<feBlend mode="normal" in="SourceGraphic" in2="BackgroundImageFix" result="shape"/>
<feColorMatrix in="SourceAlpha" type="matrix" values="0 0 0 0 0 0 0 0 0 0 0 0 0 0 0 0 0 0 127 0" result="hardAlpha"/>
<feOffset dx="2.82719" dy="1.88479"/>
<feGaussianBlur stdDeviation="2.35599"/>
<feComposite in2="hardAlpha" operator="arithmetic" k2="-1" k3="1"/>
<feColorMatrix type="matrix" values="0 0 0 0 1 0 0 0 0 1 0 0 0 0 1 0 0 0 0.46 0"/>
<feBlend mode="normal" in2="shape" result="effect1_innerShadow_40003896_40288"/>
</filter>
</defs>
</svg>
