<svg width="113" height="26" viewBox="0 0 113 26" fill="none" xmlns="http://www.w3.org/2000/svg">
<g id="img_textlogo">
<path id="Vector" d="M102.722 25.8362C101.039 25.8362 99.5853 25.421 98.3627 24.5906C97.1402 23.7602 96.1944 22.653 95.5255 21.2689C94.8796 19.8618 94.5566 18.3163 94.5566 16.6324C94.5566 14.8793 94.9257 13.3107 95.6639 11.9267C96.4251 10.5196 97.4977 9.41236 98.8818 8.60501C100.289 7.77459 101.961 7.35938 103.899 7.35938C105.813 7.35938 107.44 7.77459 108.778 8.60501C110.139 9.41236 111.177 10.5196 111.892 11.9267C112.63 13.3107 112.999 14.8562 112.999 16.5632V25.421H109.02V22.134H108.951C108.605 22.7798 108.155 23.3911 107.601 23.9678C107.048 24.5214 106.367 24.9712 105.56 25.3172C104.752 25.6632 103.807 25.8362 102.722 25.8362ZM103.795 22.4454C104.833 22.4454 105.733 22.1916 106.494 21.6841C107.278 21.1536 107.878 20.45 108.293 19.5735C108.731 18.6739 108.951 17.6704 108.951 16.5632C108.951 15.456 108.743 14.4756 108.328 13.6221C107.913 12.7456 107.324 12.0536 106.563 11.5461C105.802 11.0155 104.891 10.7503 103.83 10.7503C102.722 10.7503 101.777 11.0155 100.992 11.5461C100.208 12.0536 99.6084 12.7456 99.1932 13.6221C98.7779 14.4987 98.5703 15.4906 98.5703 16.5978C98.5703 17.682 98.7779 18.6739 99.1932 19.5735C99.6084 20.45 100.197 21.1536 100.958 21.6841C101.742 22.1916 102.688 22.4454 103.795 22.4454Z" fill="#212121"/>
<path id="Vector_2" d="M82.8005 25.836C81.3934 25.836 80.1132 25.6168 78.9598 25.1785C77.8295 24.7172 76.8607 24.0598 76.0533 23.2063C75.2691 22.3528 74.6578 21.3494 74.2195 20.196C73.8043 19.0196 73.5967 17.7278 73.5967 16.3207C73.5967 14.5215 73.9542 12.9529 74.6693 11.615C75.4075 10.2771 76.4224 9.23907 77.7142 8.50092C79.0059 7.7397 80.4823 7.35909 82.1431 7.35909C82.9735 7.35909 83.7578 7.48596 84.496 7.7397C85.2341 7.99344 85.9031 8.35098 86.5028 8.81233C87.1026 9.27367 87.587 9.81575 87.956 10.4386H87.9906V0.162109H91.9697V16.3899C91.9697 18.3276 91.5776 20.0115 90.7933 21.4417C90.0321 22.8488 88.9595 23.9329 87.5754 24.6941C86.2145 25.4554 84.6228 25.836 82.8005 25.836ZM82.8005 22.4451C83.8155 22.4451 84.7036 22.2029 85.4648 21.7185C86.2491 21.211 86.8604 20.519 87.2986 19.6424C87.7369 18.7659 87.956 17.7509 87.956 16.5975C87.956 15.4442 87.7369 14.4292 87.2986 13.5526C86.8604 12.6761 86.2491 11.9956 85.4648 11.5112C84.7036 11.0037 83.8039 10.75 82.7659 10.75C81.774 10.75 80.8859 11.0037 80.1016 11.5112C79.3174 12.0187 78.7061 12.7107 78.2678 13.5873C77.8295 14.4638 77.6104 15.4672 77.6104 16.5975C77.6104 17.7509 77.8295 18.7659 78.2678 19.6424C78.7061 20.519 79.3174 21.211 80.1016 21.7185C80.909 22.2029 81.8086 22.4451 82.8005 22.4451Z" fill="#212121"/>
<path id="Vector_3" d="M62.4241 25.8351C60.7171 25.8351 59.2292 25.5006 57.9605 24.8317C56.6918 24.1397 55.7115 23.1939 55.0195 21.9944C54.3275 20.7949 53.9814 19.4455 53.9814 17.9461V7.77344H57.9605V17.9115C57.9605 18.8111 58.1566 19.6069 58.5488 20.299C58.964 20.9679 59.5061 21.4985 60.175 21.8906C60.867 22.2597 61.6167 22.4442 62.4241 22.4442C63.2314 22.4442 63.9696 22.2597 64.6385 21.8906C65.3305 21.4985 65.8726 20.9679 66.2648 20.299C66.68 19.6069 66.8876 18.8111 66.8876 17.9115V7.77344H70.8667V17.9461C70.8667 19.4455 70.5207 20.7949 69.8287 21.9944C69.1366 23.1939 68.1563 24.1397 66.8876 24.8317C65.6189 25.5006 64.131 25.8351 62.4241 25.8351Z" fill="#212121"/>
<path id="Vector_4" d="M42.9863 25.4199V12.7906C42.9863 11.222 43.4246 9.99943 44.3012 9.12287C45.2008 8.22325 46.4349 7.77344 48.0035 7.77344H52.2594V11.1643H48.7301C48.1765 11.1643 47.7382 11.3258 47.4152 11.6487C47.1154 11.9717 46.9654 12.41 46.9654 12.9636V25.4199H42.9863Z" fill="#212121"/>
<path id="Vector_5" d="M29.1258 25.8362C27.4419 25.8362 25.9886 25.421 24.7661 24.5906C23.5435 23.7602 22.5977 22.653 21.9288 21.2689C21.2829 19.8618 20.96 18.3163 20.96 16.6324C20.96 14.8793 21.329 13.3107 22.0672 11.9267C22.8284 10.5196 23.901 9.41236 25.2851 8.60501C26.6922 7.77459 28.3645 7.35938 30.3022 7.35938C32.2168 7.35938 33.843 7.77459 35.1809 8.60501C36.5419 9.41236 37.5799 10.5196 38.295 11.9267C39.0332 13.3107 39.4022 14.8562 39.4022 16.5632V25.421H35.4231V22.134H35.3539C35.0079 22.7798 34.5581 23.3911 34.0045 23.9678C33.4509 24.5214 32.7704 24.9712 31.963 25.3172C31.1557 25.6632 30.2099 25.8362 29.1258 25.8362ZM30.1984 22.4454C31.2364 22.4454 32.136 22.1916 32.8973 21.6841C33.6816 21.1536 34.2813 20.45 34.6965 19.5735C35.1348 18.6739 35.3539 17.6704 35.3539 16.5632C35.3539 15.456 35.1463 14.4756 34.7311 13.6221C34.3159 12.7456 33.7277 12.0536 32.9665 11.5461C32.2052 11.0155 31.2941 10.7503 30.233 10.7503C29.1258 10.7503 28.18 11.0155 27.3957 11.5461C26.6114 12.0536 26.0117 12.7456 25.5965 13.6221C25.1813 14.4987 24.9737 15.4906 24.9737 16.5978C24.9737 17.682 25.1813 18.6739 25.5965 19.5735C26.0117 20.45 26.5999 21.1536 27.3611 21.6841C28.1454 22.1916 29.0912 22.4454 30.1984 22.4454Z" fill="#212121"/>
<path id="Vector_6" d="M9.20384 25.836C7.79673 25.836 6.5165 25.6168 5.36314 25.1785C4.23284 24.7172 3.26402 24.0598 2.45666 23.2063C1.67238 22.3528 1.06109 21.3494 0.622816 20.196C0.207605 19.0196 0 17.7278 0 16.3207C0 14.5215 0.357542 12.9529 1.07263 11.615C1.81078 10.2771 2.82574 9.23907 4.11751 8.50092C5.40927 7.7397 6.88558 7.35909 8.54642 7.35909C9.37684 7.35909 10.1611 7.48596 10.8993 7.7397C11.6374 7.99344 12.3064 8.35098 12.9061 8.81233C13.5059 9.27367 13.9903 9.81575 14.3594 10.4386H14.394V0.162109H18.3731V16.3899C18.3731 18.3276 17.9809 20.0115 17.1966 21.4417C16.4354 22.8488 15.3628 23.9329 13.9788 24.6941C12.6178 25.4554 11.0261 25.836 9.20384 25.836ZM9.20384 22.4451C10.2188 22.4451 11.1069 22.2029 11.8681 21.7185C12.6524 21.211 13.2637 20.519 13.702 19.6424C14.1402 18.7659 14.3594 17.7509 14.3594 16.5975C14.3594 15.4442 14.1402 14.4292 13.702 13.5526C13.2637 12.6761 12.6524 11.9956 11.8681 11.5112C11.1069 11.0037 10.2073 10.75 9.16924 10.75C8.17734 10.75 7.28925 11.0037 6.50497 11.5112C5.72068 12.0187 5.1094 12.7107 4.67112 13.5873C4.23284 14.4638 4.0137 15.4672 4.0137 16.5975C4.0137 17.7509 4.23284 18.7659 4.67112 19.6424C5.1094 20.519 5.72068 21.211 6.50497 21.7185C7.31232 22.2029 8.21194 22.4451 9.20384 22.4451Z" fill="#212121"/>
</g>
</svg>
