<svg width="409" height="121" viewBox="0 0 409 121" fill="none" xmlns="http://www.w3.org/2000/svg">
<g filter="url(#filter0_i_40002795_17525)">
<path d="M40.5059 46.0715C39.9169 41.2391 45.2356 37.9157 49.3207 40.5634L105.582 77.0283C109.877 79.8123 108.653 86.4014 103.644 87.4561L78.1708 92.8196C76.8436 93.0991 75.6584 93.8397 74.8254 94.9101L58.8392 115.453C55.6955 119.492 49.2363 117.705 48.6171 112.624L40.5059 46.0715Z" fill="#4D4ECD"/>
</g>
<g filter="url(#filter1_i_40002795_17525)">
<path fill-rule="evenodd" clip-rule="evenodd" d="M36.6589 27.54C37.1639 29.8856 34.4381 31.5614 32.573 30.052L12.6704 13.945C11.3066 12.8413 11.4437 10.7207 12.9383 9.80186L27.4526 0.87856C28.9472 -0.0403161 30.9013 0.794566 31.2706 2.50975L36.6589 27.54ZM27.6508 40.6396C29.9282 41.3944 29.9895 44.5936 27.7427 45.4351L3.76551 54.4153C2.12249 55.0306 0.364619 53.8367 0.330988 52.0825L0.00439414 35.0478C-0.0292368 33.2936 1.68158 32.0332 3.34698 32.5851L27.6508 40.6396ZM49.4791 28.842C49.1346 31.2164 51.968 32.7032 53.7262 31.0706L72.4886 13.6489C73.7743 12.455 73.4935 10.3487 71.9399 9.53346L56.853 1.61674C55.2994 0.801513 53.4065 1.76721 53.1546 3.50351L49.4791 28.842Z" fill="#F77B1B"/>
</g>
<path d="M383.232 92.0287C379.096 92.0287 375.526 91.0088 372.523 88.9689C369.52 86.9291 367.197 84.2094 365.554 80.8096C363.967 77.3533 363.174 73.5569 363.174 69.4206C363.174 65.1143 364.08 61.2613 365.894 57.8616C367.763 54.4052 370.398 51.6855 373.798 49.7023C377.254 47.6625 381.362 46.6426 386.122 46.6426C390.825 46.6426 394.819 47.6625 398.106 49.7023C401.449 51.6855 403.999 54.4052 405.755 57.8616C407.568 61.2613 408.475 65.0577 408.475 69.2506V91.0088H398.701V82.9345H398.531C397.681 84.521 396.576 86.0225 395.216 87.4391C393.856 88.799 392.185 89.9039 390.202 90.7538C388.218 91.6037 385.895 92.0287 383.232 92.0287ZM385.867 83.6994C388.417 83.6994 390.626 83.0761 392.496 81.8296C394.423 80.5263 395.896 78.7982 396.916 76.645C397.993 74.4352 398.531 71.9704 398.531 69.2506C398.531 66.5309 398.021 64.1227 397.001 62.0263C395.981 59.8731 394.536 58.1733 392.666 56.9267C390.796 55.6235 388.558 54.9719 385.952 54.9719C383.232 54.9719 380.909 55.6235 378.982 56.9267C377.056 58.1733 375.583 59.8731 374.563 62.0263C373.543 64.1794 373.033 66.6159 373.033 69.3356C373.033 71.9987 373.543 74.4352 374.563 76.645C375.583 78.7982 377.028 80.5263 378.897 81.8296C380.824 83.0761 383.147 83.6994 385.867 83.6994Z" fill="#212121"/>
<path d="M334.298 92.0314C330.841 92.0314 327.696 91.4931 324.863 90.4165C322.087 89.2833 319.707 87.6684 317.724 85.5719C315.797 83.4754 314.296 81.0107 313.219 78.1776C312.199 75.2878 311.689 72.1148 311.689 68.6584C311.689 64.2388 312.568 60.3858 314.324 57.0994C316.137 53.813 318.631 51.2632 321.804 49.45C324.977 47.5802 328.603 46.6453 332.683 46.6453C334.722 46.6453 336.649 46.9569 338.462 47.5802C340.275 48.2035 341.919 49.0817 343.392 50.215C344.865 51.3482 346.055 52.6798 346.961 54.2096H347.046V28.9668H356.821V68.8284C356.821 73.588 355.857 77.7243 353.931 81.2373C352.061 84.6937 349.426 87.3568 346.027 89.2266C342.683 91.0965 338.774 92.0314 334.298 92.0314ZM334.298 83.7021C336.791 83.7021 338.972 83.1071 340.842 81.9172C342.768 80.6707 344.27 78.9708 345.347 76.8177C346.423 74.6645 346.961 72.1714 346.961 69.3383C346.961 66.5052 346.423 64.0121 345.347 61.859C344.27 59.7058 342.768 58.0343 340.842 56.8444C338.972 55.5978 336.762 54.9746 334.213 54.9746C331.776 54.9746 329.595 55.5978 327.668 56.8444C325.742 58.091 324.24 59.7908 323.163 61.944C322.087 64.0971 321.549 66.5619 321.549 69.3383C321.549 72.1714 322.087 74.6645 323.163 76.8177C324.24 78.9708 325.742 80.6707 327.668 81.9172C329.651 83.1071 331.861 83.7021 334.298 83.7021Z" fill="#212121"/>
<path d="M284.246 92.0322C280.053 92.0322 276.398 91.2106 273.282 89.5674C270.166 87.8676 267.757 85.5444 266.058 82.598C264.358 79.6516 263.508 76.3369 263.508 72.6539V47.666H273.282V72.5689C273.282 74.7787 273.764 76.7335 274.727 78.4334C275.747 80.0766 277.078 81.3798 278.722 82.343C280.421 83.2496 282.263 83.7029 284.246 83.7029C286.229 83.7029 288.042 83.2496 289.686 82.343C291.385 81.3798 292.717 80.0766 293.68 78.4334C294.7 76.7335 295.21 74.7787 295.21 72.5689V47.666H304.984V72.6539C304.984 76.3369 304.134 79.6516 302.434 82.598C300.735 85.5444 298.326 87.8676 295.21 89.5674C292.094 91.2106 288.439 92.0322 284.246 92.0322Z" fill="#212121"/>
<path d="M236.498 91.0123V59.99C236.498 56.137 237.575 53.1339 239.728 50.9807C241.938 48.7709 244.969 47.666 248.822 47.666H259.276V55.9953H250.607C249.247 55.9953 248.17 56.3919 247.377 57.1852C246.641 57.9785 246.272 59.055 246.272 60.4149V91.0123H236.498Z" fill="#212121"/>
<path d="M202.451 92.0287C198.315 92.0287 194.745 91.0088 191.742 88.9689C188.739 86.9291 186.416 84.2094 184.772 80.8096C183.186 77.3533 182.393 73.5569 182.393 69.4206C182.393 65.1143 183.299 61.2613 185.112 57.8616C186.982 54.4052 189.617 51.6855 193.017 49.7023C196.473 47.6625 200.581 46.6426 205.341 46.6426C210.044 46.6426 214.038 47.6625 217.325 49.7023C220.668 51.6855 223.217 54.4052 224.974 57.8616C226.787 61.2613 227.694 65.0577 227.694 69.2506V91.0088H217.92V82.9345H217.75C216.9 84.521 215.795 86.0225 214.435 87.4391C213.075 88.799 211.403 89.9039 209.42 90.7538C207.437 91.6037 205.114 92.0287 202.451 92.0287ZM205.086 83.6994C207.635 83.6994 209.845 83.0761 211.715 81.8296C213.642 80.5263 215.115 78.7982 216.135 76.645C217.211 74.4352 217.75 71.9704 217.75 69.2506C217.75 66.5309 217.24 64.1227 216.22 62.0263C215.2 59.8731 213.755 58.1733 211.885 56.9267C210.015 55.6235 207.777 54.9719 205.171 54.9719C202.451 54.9719 200.128 55.6235 198.201 56.9267C196.275 58.1733 194.802 59.8731 193.782 62.0263C192.762 64.1794 192.252 66.6159 192.252 69.3356C192.252 71.9987 192.762 74.4352 193.782 76.645C194.802 78.7982 196.246 80.5263 198.116 81.8296C200.043 83.0761 202.366 83.6994 205.086 83.6994Z" fill="#212121"/>
<path d="M153.516 92.0314C150.06 92.0314 146.915 91.4931 144.082 90.4165C141.306 89.2833 138.926 87.6684 136.943 85.5719C135.016 83.4754 133.515 81.0107 132.438 78.1776C131.418 75.2878 130.908 72.1148 130.908 68.6584C130.908 64.2388 131.786 60.3858 133.543 57.0994C135.356 53.813 137.849 51.2632 141.022 49.45C144.195 47.5802 147.822 46.6453 151.901 46.6453C153.941 46.6453 155.868 46.9569 157.681 47.5802C159.494 48.2035 161.137 49.0817 162.61 50.215C164.084 51.3482 165.274 52.6798 166.18 54.2096H166.265V28.9668H176.039V68.8284C176.039 73.588 175.076 77.7243 173.15 81.2373C171.28 84.6937 168.645 87.3568 165.245 89.2266C161.902 91.0965 157.993 92.0314 153.516 92.0314ZM153.516 83.7021C156.009 83.7021 158.191 83.1071 160.061 81.9172C161.987 80.6707 163.489 78.9708 164.565 76.8177C165.642 74.6645 166.18 72.1714 166.18 69.3383C166.18 66.5052 165.642 64.0121 164.565 61.859C163.489 59.7058 161.987 58.0343 160.061 56.8444C158.191 55.5978 155.981 54.9746 153.431 54.9746C150.995 54.9746 148.813 55.5978 146.887 56.8444C144.96 58.091 143.459 59.7908 142.382 61.944C141.306 64.0971 140.767 66.5619 140.767 69.3383C140.767 72.1714 141.306 74.6645 142.382 76.8177C143.459 78.9708 144.96 80.6707 146.887 81.9172C148.87 83.1071 151.08 83.7021 153.516 83.7021Z" fill="#212121"/>
<defs>
<filter id="filter0_i_40002795_17525" x="40.4609" y="39.627" width="74.3412" height="83.1226" filterUnits="userSpaceOnUse" color-interpolation-filters="sRGB">
<feFlood flood-opacity="0" result="BackgroundImageFix"/>
<feBlend mode="normal" in="SourceGraphic" in2="BackgroundImageFix" result="shape"/>
<feColorMatrix in="SourceAlpha" type="matrix" values="0 0 0 0 0 0 0 0 0 0 0 0 0 0 0 0 0 0 127 0" result="hardAlpha"/>
<feOffset dx="6.60096" dy="5.07766"/>
<feGaussianBlur stdDeviation="5.61082"/>
<feComposite in2="hardAlpha" operator="arithmetic" k2="-1" k3="1"/>
<feColorMatrix type="matrix" values="0 0 0 0 1 0 0 0 0 1 0 0 0 0 1 0 0 0 0.4 0"/>
<feBlend mode="normal" in2="shape" result="effect1_innerShadow_40002795_17525"/>
</filter>
<filter id="filter1_i_40002795_17525" x="0.00390625" y="0.5" width="79.3901" height="58.1403" filterUnits="userSpaceOnUse" color-interpolation-filters="sRGB">
<feFlood flood-opacity="0" result="BackgroundImageFix"/>
<feBlend mode="normal" in="SourceGraphic" in2="BackgroundImageFix" result="shape"/>
<feColorMatrix in="SourceAlpha" type="matrix" values="0 0 0 0 0 0 0 0 0 0 0 0 0 0 0 0 0 0 127 0" result="hardAlpha"/>
<feOffset dx="6.0932" dy="4.06213"/>
<feGaussianBlur stdDeviation="5.07766"/>
<feComposite in2="hardAlpha" operator="arithmetic" k2="-1" k3="1"/>
<feColorMatrix type="matrix" values="0 0 0 0 1 0 0 0 0 1 0 0 0 0 1 0 0 0 0.46 0"/>
<feBlend mode="normal" in2="shape" result="effect1_innerShadow_40002795_17525"/>
</filter>
</defs>
</svg>
