<svg width="177" height="40" viewBox="0 0 177 40" fill="none" xmlns="http://www.w3.org/2000/svg">
<path d="M160.041 40C157.417 40 155.153 39.3531 153.248 38.0593C151.344 36.7654 149.87 35.0404 148.828 32.884C147.822 30.6918 147.318 28.2839 147.318 25.6603C147.318 22.929 147.893 20.4851 149.043 18.3288C150.229 16.1365 151.901 14.4115 154.057 13.1536C156.249 11.8598 158.855 11.2129 161.874 11.2129C164.857 11.2129 167.39 11.8598 169.475 13.1536C171.595 14.4115 173.212 16.1365 174.326 18.3288C175.476 20.4851 176.052 22.893 176.052 25.5525V39.3531H169.852V34.2318H169.744C169.205 35.238 168.504 36.1904 167.642 37.0889C166.779 37.9514 165.719 38.6522 164.461 39.1913C163.203 39.7304 161.73 40 160.041 40ZM161.712 34.7169C163.329 34.7169 164.731 34.3216 165.917 33.5309C167.139 32.7044 168.073 31.6082 168.72 30.2425C169.403 28.8409 169.744 27.2776 169.744 25.5525C169.744 23.8274 169.421 22.3 168.774 20.9703C168.127 19.6046 167.211 18.5265 166.025 17.7358C164.839 16.9092 163.419 16.4959 161.766 16.4959C160.041 16.4959 158.567 16.9092 157.345 17.7358C156.123 18.5265 155.189 19.6046 154.542 20.9703C153.895 22.336 153.572 23.8814 153.572 25.6064C153.572 27.2955 153.895 28.8409 154.542 30.2425C155.189 31.6082 156.105 32.7044 157.291 33.5309C158.513 34.3216 159.987 34.7169 161.712 34.7169Z" fill="#212121"/>
<path d="M129.004 40C126.811 40 124.817 39.6586 123.02 38.9757C121.259 38.257 119.749 37.2327 118.492 35.903C117.27 34.5732 116.317 33.0099 115.634 31.2129C114.988 29.3801 114.664 27.3675 114.664 25.1752C114.664 22.372 115.221 19.9281 116.335 17.8437C117.485 15.7592 119.067 14.142 121.079 12.9919C123.092 11.8059 125.392 11.2129 127.979 11.2129C129.273 11.2129 130.495 11.4106 131.645 11.8059C132.795 12.2013 133.837 12.7583 134.772 13.4771C135.706 14.1959 136.461 15.0404 137.036 16.0108H137.09V0H143.289V25.283C143.289 28.3019 142.678 30.9254 141.457 33.1536C140.271 35.3459 138.599 37.035 136.443 38.221C134.323 39.407 131.843 40 129.004 40ZM129.004 34.717C130.585 34.717 131.969 34.3396 133.155 33.5849C134.377 32.7942 135.329 31.7161 136.012 30.3504C136.695 28.9847 137.036 27.4034 137.036 25.6065C137.036 23.8095 136.695 22.2282 136.012 20.8625C135.329 19.4969 134.377 18.4367 133.155 17.6819C131.969 16.8913 130.567 16.496 128.95 16.496C127.404 16.496 126.021 16.8913 124.799 17.6819C123.577 18.4726 122.625 19.5508 121.942 20.9164C121.259 22.2821 120.917 23.8455 120.917 25.6065C120.917 27.4034 121.259 28.9847 121.942 30.3504C122.625 31.7161 123.577 32.7942 124.799 33.5849C126.057 34.3396 127.458 34.717 129.004 34.717Z" fill="#212121"/>
<path d="M97.2572 40.0015C94.5977 40.0015 92.2796 39.4804 90.303 38.4381C88.3263 37.36 86.7989 35.8865 85.7208 34.0177C84.6426 32.1488 84.1035 30.0464 84.1035 27.7104V11.8613H90.303V27.6565C90.303 29.0581 90.6085 30.298 91.2194 31.3762C91.8663 32.4184 92.7109 33.245 93.7531 33.8559C94.8313 34.431 95.9993 34.7185 97.2572 34.7185C98.515 34.7185 99.6651 34.431 100.707 33.8559C101.785 33.245 102.63 32.4184 103.241 31.3762C103.888 30.298 104.211 29.0581 104.211 27.6565V11.8613H110.411V27.7104C110.411 30.0464 109.872 32.1488 108.794 34.0177C107.715 35.8865 106.188 37.36 104.211 38.4381C102.235 39.4804 99.9166 40.0015 97.2572 40.0015Z" fill="#212121"/>
<path d="M66.9727 39.3546V19.678C66.9727 17.2342 67.6555 15.3294 69.0212 13.9638C70.4228 12.5621 72.3455 11.8613 74.7894 11.8613H81.4201V17.1443H75.9214C75.0589 17.1443 74.3761 17.3959 73.8729 17.8991C73.4057 18.4022 73.1721 19.0851 73.1721 19.9476V39.3546H66.9727Z" fill="#212121"/>
<path d="M45.3767 40C42.7531 40 40.489 39.3531 38.5842 38.0593C36.6795 36.7654 35.206 35.0404 34.1637 32.884C33.1574 30.6918 32.6543 28.2839 32.6543 25.6603C32.6543 22.929 33.2293 20.4851 34.3794 18.3288C35.5653 16.1365 37.2365 14.4115 39.3928 13.1536C41.5851 11.8598 44.1907 11.2129 47.2096 11.2129C50.1925 11.2129 52.7262 11.8598 54.8106 13.1536C56.931 14.4115 58.5483 16.1365 59.6624 18.3288C60.8124 20.4851 61.3875 22.893 61.3875 25.5525V39.3531H55.188V34.2318H55.0802C54.5411 35.238 53.8403 36.1904 52.9777 37.0889C52.1152 37.9514 51.055 38.6522 49.7972 39.1913C48.5393 39.7304 47.0658 40 45.3767 40ZM47.0478 34.7169C48.6651 34.7169 50.0667 34.3216 51.2527 33.5309C52.4746 32.7044 53.409 31.6082 54.0559 30.2425C54.7388 28.8409 55.0802 27.2776 55.0802 25.5525C55.0802 23.8274 54.7567 22.3 54.1098 20.9703C53.4629 19.6046 52.5465 18.5265 51.3605 17.7358C50.1745 16.9092 48.7549 16.4959 47.1017 16.4959C45.3767 16.4959 43.9032 16.9092 42.6813 17.7358C41.4593 18.5265 40.5249 19.6046 39.878 20.9703C39.2311 22.336 38.9077 23.8814 38.9077 25.6064C38.9077 27.2955 39.2311 28.8409 39.878 30.2425C40.5249 31.6082 41.4414 32.7044 42.6273 33.5309C43.8493 34.3216 45.3228 34.7169 47.0478 34.7169Z" fill="#212121"/>
<path d="M14.3396 40C12.1474 40 10.1527 39.6586 8.3558 38.9757C6.59479 38.257 5.08536 37.2327 3.82749 35.903C2.60557 34.5732 1.65319 33.0099 0.97035 31.2129C0.32345 29.3801 0 27.3675 0 25.1752C0 22.372 0.557053 19.9281 1.67116 17.8437C2.8212 15.7592 4.40252 14.142 6.4151 12.9919C8.42767 11.8059 10.7278 11.2129 13.3154 11.2129C14.6092 11.2129 15.8311 11.4106 16.9811 11.8059C18.1312 12.2013 19.1734 12.7583 20.1078 13.4771C21.0422 14.1959 21.7969 15.0404 22.372 16.0108H22.4259V0H28.6253V25.283C28.6253 28.3019 28.0144 30.9254 26.7925 33.1536C25.6065 35.3459 23.9353 37.035 21.779 38.221C19.6586 39.407 17.1788 40 14.3396 40ZM14.3396 34.717C15.9209 34.717 17.3046 34.3396 18.4906 33.5849C19.7125 32.7942 20.6649 31.7161 21.3477 30.3504C22.0305 28.9847 22.372 27.4034 22.372 25.6065C22.372 23.8095 22.0305 22.2282 21.3477 20.8625C20.6649 19.4969 19.7125 18.4367 18.4906 17.6819C17.3046 16.8913 15.903 16.496 14.2857 16.496C12.7403 16.496 11.3567 16.8913 10.1348 17.6819C8.91285 18.4726 7.96047 19.5508 7.27763 20.9164C6.59479 22.2821 6.25337 23.8455 6.25337 25.6065C6.25337 27.4034 6.59479 28.9847 7.27763 30.3504C7.96047 31.7161 8.91285 32.7942 10.1348 33.5849C11.3926 34.3396 12.7943 34.717 14.3396 34.717Z" fill="#212121"/>
</svg>
