<svg width="48" height="48" viewBox="0 0 48 48" fill="none" xmlns="http://www.w3.org/2000/svg">
<path d="M38.8805 19.3833C40.0836 19.8086 40.2341 21.4471 39.1299 22.0862L31.0567 26.7506C30.8539 26.8679 30.6212 26.9231 30.3873 26.9093C30.1534 26.8955 29.9287 26.8132 29.7412 26.6728L20.191 19.5102C19.9154 19.3022 19.5654 19.6522 19.7725 19.9287L26.9352 29.4772C27.0756 29.6647 27.1578 29.8894 27.1716 30.1232C27.1855 30.3571 27.1303 30.5899 27.0129 30.7927L22.346 38.8701C21.7077 39.9734 20.0693 39.8229 19.6431 38.6207L10.1327 11.7802C9.71248 10.5957 10.8555 9.45268 12.0409 9.87203L38.8805 19.3833Z" fill="white"/>
</svg>
