<svg width="120" height="120" viewBox="0 0 120 120" fill="none" xmlns="http://www.w3.org/2000/svg">
<path d="M20.5 42.7324C20.5 41.6279 21.3954 40.7324 22.5 40.7324H71.5C72.6046 40.7324 73.5 41.6279 73.5 42.7324V102.229C73.5 103.777 71.8163 104.738 70.4831 103.951L48.0169 90.6848C47.3896 90.3143 46.6104 90.3143 45.9831 90.6848L23.5169 103.951C22.1837 104.738 20.5 103.777 20.5 102.229V42.7324Z" stroke="#CCCCCC" stroke-width="5" stroke-linejoin="round"/>
<path fill-rule="evenodd" clip-rule="evenodd" d="M72.5 54.7324C86.8594 54.7324 98.5 45.5543 98.5 34.2324C98.5 22.9106 86.8594 13.7324 72.5 13.7324C58.1406 13.7324 46.5 22.9106 46.5 34.2324C46.5 40.2163 49.7516 45.6013 54.9377 49.349L52.3079 56.9097C52.0132 57.757 52.8972 58.5338 53.6996 58.1326L63.2005 53.3822C66.088 54.2545 69.2232 54.7324 72.5 54.7324Z" fill="#EBEBEB"/>
<path fill-rule="evenodd" clip-rule="evenodd" d="M65.5 34.7324C65.5 36.3893 64.1569 37.7324 62.5 37.7324C60.8431 37.7324 59.5 36.3893 59.5 34.7324C59.5 33.0756 60.8431 31.7324 62.5 31.7324C64.1569 31.7324 65.5 33.0756 65.5 34.7324ZM75.5 34.7324C75.5 36.3893 74.1569 37.7324 72.5 37.7324C70.8431 37.7324 69.5 36.3893 69.5 34.7324C69.5 33.0756 70.8431 31.7324 72.5 31.7324C74.1569 31.7324 75.5 33.0756 75.5 34.7324ZM82.5 37.7324C84.1569 37.7324 85.5 36.3893 85.5 34.7324C85.5 33.0756 84.1569 31.7324 82.5 31.7324C80.8431 31.7324 79.5 33.0756 79.5 34.7324C79.5 36.3893 80.8431 37.7324 82.5 37.7324Z" fill="#ACACAC"/>
</svg>
