<svg width="113" height="33" viewBox="0 0 113 33" fill="none" xmlns="http://www.w3.org/2000/svg">
<g filter="url(#filter0_i_40001092_1090)">
<path d="M11.1393 12.532C10.9774 11.2031 12.44 10.2892 13.5634 11.0173L29.0352 21.0451C30.2164 21.8107 29.8796 23.6227 28.5022 23.9128L21.4972 25.3878C21.1322 25.4646 20.8062 25.6683 20.5772 25.9626L16.181 31.6119C15.3165 32.7228 13.5402 32.2312 13.3699 30.8339L11.1393 12.532Z" fill="#4D4ECD"/>
</g>
<g filter="url(#filter1_i_40001092_1090)">
<path fill-rule="evenodd" clip-rule="evenodd" d="M10.0808 7.43601C10.2196 8.08103 9.47004 8.54187 8.95716 8.12681L3.48394 3.69738C3.10889 3.39386 3.1466 2.8107 3.55762 2.55801L7.54904 0.104104C7.96006 -0.148587 8.49744 0.081005 8.59898 0.55268L10.0808 7.43601ZM7.60484 11.0387C8.23114 11.2463 8.248 12.1261 7.63012 12.3575L1.03639 14.827C0.584563 14.9962 0.101149 14.6679 0.0919005 14.1855L0.00208729 9.50096C-0.00716122 9.01857 0.463313 8.67194 0.921297 8.82372L7.60484 11.0387ZM13.6068 7.79449C13.512 8.44745 14.2912 8.85631 14.7747 8.40736L19.9344 3.61637C20.288 3.28807 20.2107 2.70882 19.7835 2.48463L15.6346 0.307535C15.2073 0.0833485 14.6868 0.348914 14.6175 0.826397L13.6068 7.79449Z" fill="#F77B1B"/>
</g>
<path d="M105.39 25.1716C104.253 25.1716 103.271 24.8911 102.445 24.3302C101.619 23.7692 100.98 23.0213 100.528 22.0864C100.092 21.1359 99.874 20.0919 99.874 18.9544C99.874 17.7702 100.123 16.7106 100.622 15.7757C101.136 14.8252 101.861 14.0772 102.796 13.5319C103.746 12.9709 104.876 12.6904 106.185 12.6904C107.478 12.6904 108.577 12.9709 109.48 13.5319C110.4 14.0772 111.101 14.8252 111.584 15.7757C112.083 16.7106 112.332 17.7546 112.332 18.9076V24.8911H109.644V22.6707H109.597C109.363 23.107 109.06 23.5199 108.686 23.9095C108.312 24.2834 107.852 24.5873 107.307 24.821C106.761 25.0547 106.122 25.1716 105.39 25.1716ZM106.115 22.8811C106.816 22.8811 107.424 22.7097 107.938 22.3668C108.467 22.0085 108.873 21.5332 109.153 20.9411C109.449 20.3334 109.597 19.6556 109.597 18.9076C109.597 18.1597 109.457 17.4975 109.176 16.9209C108.896 16.3288 108.499 15.8614 107.984 15.5186C107.47 15.1602 106.855 14.981 106.138 14.981C105.39 14.981 104.751 15.1602 104.221 15.5186C103.692 15.8614 103.286 16.3288 103.006 16.9209C102.726 17.5131 102.585 18.1831 102.585 18.931C102.585 19.6634 102.726 20.3334 103.006 20.9411C103.286 21.5332 103.684 22.0085 104.198 22.3668C104.728 22.7097 105.367 22.8811 106.115 22.8811Z" fill="#212121"/>
<path d="M91.933 25.1719C90.9825 25.1719 90.1177 25.0238 89.3386 24.7278C88.5751 24.4161 87.9207 23.972 87.3753 23.3955C86.8455 22.819 86.4326 22.1412 86.1365 21.3621C85.8561 20.5674 85.7158 19.6948 85.7158 18.7443C85.7158 17.5289 85.9573 16.4693 86.4404 15.5656C86.939 14.6618 87.6246 13.9606 88.4972 13.462C89.3698 12.9478 90.367 12.6907 91.4889 12.6907C92.0499 12.6907 92.5797 12.7764 93.0783 12.9478C93.5769 13.1192 94.0288 13.3607 94.4339 13.6723C94.8391 13.984 95.1663 14.3502 95.4156 14.7709H95.439V7.8291H98.1269V18.791C98.1269 20.0999 97.862 21.2374 97.3322 22.2035C96.818 23.154 96.0934 23.8863 95.1585 24.4006C94.2392 24.9148 93.164 25.1719 91.933 25.1719ZM91.933 22.8813C92.6186 22.8813 93.2186 22.7177 93.7328 22.3905C94.2625 22.0477 94.6755 21.5802 94.9715 20.9881C95.2676 20.396 95.4156 19.7104 95.4156 18.9313C95.4156 18.1522 95.2676 17.4666 94.9715 16.8744C94.6755 16.2823 94.2625 15.8227 93.7328 15.4954C93.2186 15.1526 92.6109 14.9812 91.9097 14.9812C91.2396 14.9812 90.6397 15.1526 90.1099 15.4954C89.5802 15.8382 89.1672 16.3057 88.8712 16.8978C88.5751 17.4899 88.4271 18.1678 88.4271 18.9313C88.4271 19.7104 88.5751 20.396 88.8712 20.9881C89.1672 21.5802 89.5802 22.0477 90.1099 22.3905C90.6553 22.7177 91.263 22.8813 91.933 22.8813Z" fill="#212121"/>
<path d="M78.1669 25.1714C77.0138 25.1714 76.0088 24.9455 75.1518 24.4936C74.2948 24.0261 73.6325 23.3873 73.1651 22.577C72.6976 21.7667 72.4639 20.8552 72.4639 19.8424V12.9707H75.1518V19.819C75.1518 20.4267 75.2842 20.9643 75.5491 21.4317C75.8296 21.8836 76.1958 22.242 76.6476 22.5069C77.1151 22.7562 77.6215 22.8809 78.1669 22.8809C78.7122 22.8809 79.2109 22.7562 79.6628 22.5069C80.1302 22.242 80.4964 21.8836 80.7613 21.4317C81.0418 20.9643 81.182 20.4267 81.182 19.819V12.9707H83.8699V19.8424C83.8699 20.8552 83.6362 21.7667 83.1687 22.577C82.7012 23.3873 82.039 24.0261 81.182 24.4936C80.325 24.9455 79.3199 25.1714 78.1669 25.1714Z" fill="#212121"/>
<path d="M65.0371 24.8909V16.3598C65.0371 15.3002 65.3332 14.4744 65.9253 13.8823C66.533 13.2746 67.3666 12.9707 68.4262 12.9707H71.3011V15.2613H68.917C68.5431 15.2613 68.247 15.3703 68.0289 15.5885C67.8263 15.8066 67.725 16.1027 67.725 16.4767V24.8909H65.0371Z" fill="#212121"/>
<path d="M55.6742 25.1716C54.5367 25.1716 53.5551 24.8911 52.7292 24.3302C51.9034 23.7692 51.2645 23.0213 50.8126 22.0864C50.3764 21.1359 50.1582 20.0919 50.1582 18.9544C50.1582 17.7702 50.4075 16.7106 50.9061 15.7757C51.4203 14.8252 52.1449 14.0772 53.0798 13.5319C54.0303 12.9709 55.16 12.6904 56.4689 12.6904C57.7622 12.6904 58.8607 12.9709 59.7645 13.5319C60.6838 14.0772 61.385 14.8252 61.8681 15.7757C62.3667 16.7106 62.616 17.7546 62.616 18.9076V24.8911H59.9281V22.6707H59.8814C59.6476 23.107 59.3438 23.5199 58.9698 23.9095C58.5959 24.2834 58.1362 24.5873 57.5908 24.821C57.0454 25.0547 56.4066 25.1716 55.6742 25.1716ZM56.3988 22.8811C57.1 22.8811 57.7077 22.7097 58.2219 22.3668C58.7517 22.0085 59.1568 21.5332 59.4373 20.9411C59.7333 20.3334 59.8814 19.6556 59.8814 18.9076C59.8814 18.1597 59.7411 17.4975 59.4607 16.9209C59.1802 16.3288 58.7828 15.8614 58.2686 15.5186C57.7544 15.1602 57.1389 14.981 56.4222 14.981C55.6742 14.981 55.0354 15.1602 54.5056 15.5186C53.9758 15.8614 53.5707 16.3288 53.2902 16.9209C53.0097 17.5131 52.8695 18.1831 52.8695 18.931C52.8695 19.6634 53.0097 20.3334 53.2902 20.9411C53.5707 21.5332 53.968 22.0085 54.4822 22.3668C55.012 22.7097 55.6509 22.8811 56.3988 22.8811Z" fill="#212121"/>
<path d="M42.2172 25.1719C41.2667 25.1719 40.4019 25.0238 39.6228 24.7278C38.8593 24.4161 38.2049 23.972 37.6595 23.3955C37.1297 22.819 36.7168 22.1412 36.4207 21.3621C36.1402 20.5674 36 19.6948 36 18.7443C36 17.5289 36.2415 16.4693 36.7246 15.5656C37.2232 14.6618 37.9088 13.9606 38.7814 13.462C39.654 12.9478 40.6512 12.6907 41.7731 12.6907C42.3341 12.6907 42.8639 12.7764 43.3625 12.9478C43.8611 13.1192 44.313 13.3607 44.7181 13.6723C45.1233 13.984 45.4505 14.3502 45.6998 14.7709H45.7232V7.8291H48.4111V18.791C48.4111 20.0999 48.1462 21.2374 47.6164 22.2035C47.1022 23.154 46.3776 23.8863 45.4427 24.4006C44.5234 24.9148 43.4482 25.1719 42.2172 25.1719ZM42.2172 22.8813C42.9028 22.8813 43.5027 22.7177 44.0169 22.3905C44.5467 22.0477 44.9596 21.5802 45.2557 20.9881C45.5518 20.396 45.6998 19.7104 45.6998 18.9313C45.6998 18.1522 45.5518 17.4666 45.2557 16.8744C44.9596 16.2823 44.5467 15.8227 44.0169 15.4954C43.5027 15.1526 42.895 14.9812 42.1938 14.9812C41.5238 14.9812 40.9239 15.1526 40.3941 15.4954C39.8643 15.8382 39.4514 16.3057 39.1554 16.8978C38.8593 17.4899 38.7113 18.1678 38.7113 18.9313C38.7113 19.7104 38.8593 20.396 39.1554 20.9881C39.4514 21.5802 39.8643 22.0477 40.3941 22.3905C40.9395 22.7177 41.5472 22.8813 42.2172 22.8813Z" fill="#212121"/>
<defs>
<filter id="filter0_i_40001092_1090" x="11.127" y="10.7598" width="20.4442" height="22.8592" filterUnits="userSpaceOnUse" color-interpolation-filters="sRGB">
<feFlood flood-opacity="0" result="BackgroundImageFix"/>
<feBlend mode="normal" in="SourceGraphic" in2="BackgroundImageFix" result="shape"/>
<feColorMatrix in="SourceAlpha" type="matrix" values="0 0 0 0 0 0 0 0 0 0 0 0 0 0 0 0 0 0 127 0" result="hardAlpha"/>
<feOffset dx="1.81526" dy="1.39636"/>
<feGaussianBlur stdDeviation="1.54298"/>
<feComposite in2="hardAlpha" operator="arithmetic" k2="-1" k3="1"/>
<feColorMatrix type="matrix" values="0 0 0 0 1 0 0 0 0 1 0 0 0 0 1 0 0 0 0.4 0"/>
<feBlend mode="normal" in2="shape" result="effect1_innerShadow_40001092_1090"/>
</filter>
<filter id="filter1_i_40001092_1090" x="0.00195312" y="0" width="21.8319" height="15.9892" filterUnits="userSpaceOnUse" color-interpolation-filters="sRGB">
<feFlood flood-opacity="0" result="BackgroundImageFix"/>
<feBlend mode="normal" in="SourceGraphic" in2="BackgroundImageFix" result="shape"/>
<feColorMatrix in="SourceAlpha" type="matrix" values="0 0 0 0 0 0 0 0 0 0 0 0 0 0 0 0 0 0 127 0" result="hardAlpha"/>
<feOffset dx="1.67563" dy="1.11709"/>
<feGaussianBlur stdDeviation="1.39636"/>
<feComposite in2="hardAlpha" operator="arithmetic" k2="-1" k3="1"/>
<feColorMatrix type="matrix" values="0 0 0 0 1 0 0 0 0 1 0 0 0 0 1 0 0 0 0.46 0"/>
<feBlend mode="normal" in2="shape" result="effect1_innerShadow_40001092_1090"/>
</filter>
</defs>
</svg>
