<svg width="121" height="120" viewBox="0 0 121 120" fill="none" xmlns="http://www.w3.org/2000/svg">
<g id="img_popup_nonebookmark_120">
<rect id="Rectangle 161126244" x="19.5" y="29" width="62" height="79" rx="6" fill="#ACACAC"/>
<path id="Union" fill-rule="evenodd" clip-rule="evenodd" d="M34.5 49C33.3954 49 32.5 49.8954 32.5 51C32.5 52.1046 33.3954 53 34.5 53H66.3261C67.4307 53 68.3261 52.1046 68.3261 51C68.3261 49.8954 67.4307 49 66.3261 49H34.5ZM34.5 61C33.3954 61 32.5 61.8954 32.5 63C32.5 64.1046 33.3954 65 34.5 65H66.3261C67.4307 65 68.3261 64.1046 68.3261 63C68.3261 61.8954 67.4307 61 66.3261 61H34.5ZM32.5 75C32.5 73.8954 33.3954 73 34.5 73H66.3261C67.4307 73 68.3261 73.8954 68.3261 75C68.3261 76.1046 67.4307 77 66.3261 77H34.5C33.3954 77 32.5 76.1046 32.5 75ZM34.5 85C33.3954 85 32.5 85.8954 32.5 87C32.5 88.1046 33.3954 89 34.5 89H52.2391C53.3437 89 54.2391 88.1046 54.2391 87C54.2391 85.8954 53.3437 85 52.2391 85H34.5Z" fill="#CCCCCC"/>
<path id="Union_2" fill-rule="evenodd" clip-rule="evenodd" d="M73 54.7324C87.3594 54.7324 99 45.5543 99 34.2324C99 22.9106 87.3594 13.7324 73 13.7324C58.6406 13.7324 47 22.9106 47 34.2324C47 40.2163 50.2516 45.6013 55.4377 49.349L52.8079 56.9097C52.5132 57.757 53.3972 58.5338 54.1996 58.1326L63.7005 53.3822C66.588 54.2545 69.7232 54.7324 73 54.7324Z" fill="#EBEBEB"/>
<path id="Union_3" fill-rule="evenodd" clip-rule="evenodd" d="M66 34.7324C66 36.3893 64.6569 37.7324 63 37.7324C61.3431 37.7324 60 36.3893 60 34.7324C60 33.0756 61.3431 31.7324 63 31.7324C64.6569 31.7324 66 33.0756 66 34.7324ZM76 34.7324C76 36.3893 74.6569 37.7324 73 37.7324C71.3431 37.7324 70 36.3893 70 34.7324C70 33.0756 71.3431 31.7324 73 31.7324C74.6569 31.7324 76 33.0756 76 34.7324ZM83 37.7324C84.6569 37.7324 86 36.3893 86 34.7324C86 33.0756 84.6569 31.7324 83 31.7324C81.3431 31.7324 80 33.0756 80 34.7324C80 36.3893 81.3431 37.7324 83 37.7324Z" fill="#ACACAC"/>
</g>
</svg>
