<svg width="120" height="120" viewBox="0 0 120 120" fill="none" xmlns="http://www.w3.org/2000/svg">
<rect x="19" y="29" width="62" height="79" rx="6" fill="#ACACAC"/>
<path fill-rule="evenodd" clip-rule="evenodd" d="M34 49C32.8954 49 32 49.8954 32 51C32 52.1046 32.8954 53 34 53H65.8261C66.9307 53 67.8261 52.1046 67.8261 51C67.8261 49.8954 66.9307 49 65.8261 49H34ZM34 61C32.8954 61 32 61.8954 32 63C32 64.1046 32.8954 65 34 65H65.8261C66.9307 65 67.8261 64.1046 67.8261 63C67.8261 61.8954 66.9307 61 65.8261 61H34ZM32 75C32 73.8954 32.8954 73 34 73H65.8261C66.9307 73 67.8261 73.8954 67.8261 75C67.8261 76.1046 66.9307 77 65.8261 77H34C32.8954 77 32 76.1046 32 75ZM34 85C32.8954 85 32 85.8954 32 87C32 88.1046 32.8954 89 34 89H51.7391C52.8437 89 53.7391 88.1046 53.7391 87C53.7391 85.8954 52.8437 85 51.7391 85H34Z" fill="#CCCCCC"/>
<path fill-rule="evenodd" clip-rule="evenodd" d="M72.5 54.7324C86.8594 54.7324 98.5 45.5543 98.5 34.2324C98.5 22.9106 86.8594 13.7324 72.5 13.7324C58.1406 13.7324 46.5 22.9106 46.5 34.2324C46.5 40.2163 49.7516 45.6013 54.9377 49.349L52.3079 56.9097C52.0132 57.757 52.8972 58.5338 53.6996 58.1326L63.2005 53.3822C66.088 54.2545 69.2232 54.7324 72.5 54.7324Z" fill="#EBEBEB"/>
<path fill-rule="evenodd" clip-rule="evenodd" d="M65.5 34.7324C65.5 36.3893 64.1569 37.7324 62.5 37.7324C60.8431 37.7324 59.5 36.3893 59.5 34.7324C59.5 33.0756 60.8431 31.7324 62.5 31.7324C64.1569 31.7324 65.5 33.0756 65.5 34.7324ZM75.5 34.7324C75.5 36.3893 74.1569 37.7324 72.5 37.7324C70.8431 37.7324 69.5 36.3893 69.5 34.7324C69.5 33.0756 70.8431 31.7324 72.5 31.7324C74.1569 31.7324 75.5 33.0756 75.5 34.7324ZM82.5 37.7324C84.1569 37.7324 85.5 36.3893 85.5 34.7324C85.5 33.0756 84.1569 31.7324 82.5 31.7324C80.8431 31.7324 79.5 33.0756 79.5 34.7324C79.5 36.3893 80.8431 37.7324 82.5 37.7324Z" fill="#ACACAC"/>
</svg>
