<svg width="20" height="20" viewBox="0 0 20 20" fill="none" xmlns="http://www.w3.org/2000/svg">
<path fill-rule="evenodd" clip-rule="evenodd" d="M4 1C2.34315 1 1 2.34315 1 4V16C1 17.6569 2.34315 19 4 19H16C17.6569 19 19 17.6569 19 16V4C19 2.34315 17.6569 1 16 1H4ZM14.5 9.82968V8.56894H13.6L14.125 6.24993H12.7333L12.3083 8.56894H11.2583L10.7917 6.24993H9.28333L8.825 8.56894H7.76667L7.34167 6.24993H5.875L6.4 8.56894H5.5V9.82968H6.68333L7.575 13.7499H8.95L10 8.55974L11.05 13.7499H12.425L13.3167 9.82968H14.5ZM8.275 11.3113L8 9.82968H8.56667L8.275 11.3113ZM12.0833 9.82968L11.8083 11.3389L11.5083 9.82968H12.0833Z" fill="#F77B1B"/>
</svg>
